%TF.GenerationSoftware,KiCad,Pcbnew,7.0.1*%
%TF.CreationDate,2023-04-11T16:46:36+02:00*%
%TF.ProjectId,AFE_03,4146455f-3033-42e6-9b69-6361645f7063,rev?*%
%TF.SameCoordinates,Original*%
%TF.FileFunction,Drillmap*%
%TF.FilePolarity,Positive*%
%FSLAX45Y45*%
G04 Gerber Fmt 4.5, Leading zero omitted, Abs format (unit mm)*
G04 Created by KiCad (PCBNEW 7.0.1) date 2023-04-11 16:46:36*
%MOMM*%
%LPD*%
G01*
G04 APERTURE LIST*
%ADD10C,0.100000*%
%ADD11C,0.200000*%
%ADD12C,0.030000*%
%ADD13C,0.095000*%
G04 APERTURE END LIST*
D10*
X8800000Y-3430000D02*
X11240000Y-3430000D01*
X11240000Y-6990000D01*
X8800000Y-6990000D01*
X8800000Y-3430000D01*
D11*
D12*
X9125000Y-6805000D02*
X9155000Y-6835000D01*
X9155000Y-6805000D02*
X9125000Y-6835000D01*
X9190000Y-6200000D02*
X9220000Y-6230000D01*
X9220000Y-6200000D02*
X9190000Y-6230000D01*
X9265000Y-4095000D02*
X9295000Y-4125000D01*
X9295000Y-4095000D02*
X9265000Y-4125000D01*
X9335000Y-5915000D02*
X9365000Y-5945000D01*
X9365000Y-5915000D02*
X9335000Y-5945000D01*
X9335000Y-5970000D02*
X9365000Y-6000000D01*
X9365000Y-5970000D02*
X9335000Y-6000000D01*
X9335000Y-6635000D02*
X9365000Y-6665000D01*
X9365000Y-6635000D02*
X9335000Y-6665000D01*
X9420000Y-5915000D02*
X9450000Y-5945000D01*
X9450000Y-5915000D02*
X9420000Y-5945000D01*
X9420000Y-5970000D02*
X9450000Y-6000000D01*
X9450000Y-5970000D02*
X9420000Y-6000000D01*
X9422500Y-5320000D02*
X9452500Y-5350000D01*
X9452500Y-5320000D02*
X9422500Y-5350000D01*
X9445000Y-5715000D02*
X9475000Y-5745000D01*
X9475000Y-5715000D02*
X9445000Y-5745000D01*
X9445000Y-5815000D02*
X9475000Y-5845000D01*
X9475000Y-5815000D02*
X9445000Y-5845000D01*
X9465000Y-4315000D02*
X9495000Y-4345000D01*
X9495000Y-4315000D02*
X9465000Y-4345000D01*
X9475000Y-4205000D02*
X9505000Y-4235000D01*
X9505000Y-4205000D02*
X9475000Y-4235000D01*
X9570000Y-6620000D02*
X9600000Y-6650000D01*
X9600000Y-6620000D02*
X9570000Y-6650000D01*
X9570000Y-6685000D02*
X9600000Y-6715000D01*
X9600000Y-6685000D02*
X9570000Y-6715000D01*
X9605000Y-4095000D02*
X9635000Y-4125000D01*
X9635000Y-4095000D02*
X9605000Y-4125000D01*
X9617500Y-4402500D02*
X9647500Y-4432500D01*
X9647500Y-4402500D02*
X9617500Y-4432500D01*
X9630000Y-6620000D02*
X9660000Y-6650000D01*
X9660000Y-6620000D02*
X9630000Y-6650000D01*
X9630000Y-6685000D02*
X9660000Y-6715000D01*
X9660000Y-6685000D02*
X9630000Y-6715000D01*
X9675000Y-5315000D02*
X9705000Y-5345000D01*
X9705000Y-5315000D02*
X9675000Y-5345000D01*
X9690000Y-6620000D02*
X9720000Y-6650000D01*
X9720000Y-6620000D02*
X9690000Y-6650000D01*
X9690000Y-6685000D02*
X9720000Y-6715000D01*
X9720000Y-6685000D02*
X9690000Y-6715000D01*
X9735000Y-4290000D02*
X9765000Y-4320000D01*
X9765000Y-4290000D02*
X9735000Y-4320000D01*
X9795000Y-5805000D02*
X9825000Y-5835000D01*
X9825000Y-5805000D02*
X9795000Y-5835000D01*
X9825000Y-4210000D02*
X9855000Y-4240000D01*
X9855000Y-4210000D02*
X9825000Y-4240000D01*
X9861000Y-5054000D02*
X9891000Y-5084000D01*
X9891000Y-5054000D02*
X9861000Y-5084000D01*
X9925000Y-6095000D02*
X9955000Y-6125000D01*
X9955000Y-6095000D02*
X9925000Y-6125000D01*
X9925000Y-6150000D02*
X9955000Y-6180000D01*
X9955000Y-6150000D02*
X9925000Y-6180000D01*
X9983000Y-4007000D02*
X10013000Y-4037000D01*
X10013000Y-4007000D02*
X9983000Y-4037000D01*
X10025000Y-5345000D02*
X10055000Y-5375000D01*
X10055000Y-5345000D02*
X10025000Y-5375000D01*
X10035000Y-5010000D02*
X10065000Y-5040000D01*
X10065000Y-5010000D02*
X10035000Y-5040000D01*
X10075500Y-5185000D02*
X10105500Y-5215000D01*
X10105500Y-5185000D02*
X10075500Y-5215000D01*
X10085000Y-4045000D02*
X10115000Y-4075000D01*
X10115000Y-4045000D02*
X10085000Y-4075000D01*
X10185000Y-4225000D02*
X10215000Y-4255000D01*
X10215000Y-4225000D02*
X10185000Y-4255000D01*
X10295500Y-5075000D02*
X10325500Y-5105000D01*
X10325500Y-5075000D02*
X10295500Y-5105000D01*
X10355000Y-5135000D02*
X10385000Y-5165000D01*
X10385000Y-5135000D02*
X10355000Y-5165000D01*
X10470235Y-4228083D02*
X10500235Y-4258083D01*
X10500235Y-4228083D02*
X10470235Y-4258083D01*
X10485000Y-4885000D02*
X10515000Y-4915000D01*
X10515000Y-4885000D02*
X10485000Y-4915000D01*
X10605000Y-5400000D02*
X10635000Y-5430000D01*
X10635000Y-5400000D02*
X10605000Y-5430000D01*
D13*
X10107500Y-6580000D02*
G75*
G03*
X10107500Y-6580000I-47500J0D01*
G01*
X10357500Y-6580000D02*
G75*
G03*
X10357500Y-6580000I-47500J0D01*
G01*
X10607500Y-6580000D02*
G75*
G03*
X10607500Y-6580000I-47500J0D01*
G01*
D10*
X9000000Y-3600000D02*
X9000000Y-3700000D01*
X8950000Y-3650000D02*
X9050000Y-3650000D01*
X9000000Y-3854000D02*
X9000000Y-3954000D01*
X8950000Y-3904000D02*
X9050000Y-3904000D01*
X9000000Y-4108000D02*
X9000000Y-4208000D01*
X8950000Y-4158000D02*
X9050000Y-4158000D01*
X9000000Y-4362000D02*
X9000000Y-4462000D01*
X8950000Y-4412000D02*
X9050000Y-4412000D01*
X9000000Y-4616000D02*
X9000000Y-4716000D01*
X8950000Y-4666000D02*
X9050000Y-4666000D01*
X9000000Y-4870000D02*
X9000000Y-4970000D01*
X8950000Y-4920000D02*
X9050000Y-4920000D01*
X9000000Y-5124000D02*
X9000000Y-5224000D01*
X8950000Y-5174000D02*
X9050000Y-5174000D01*
X9000000Y-5378000D02*
X9000000Y-5478000D01*
X8950000Y-5428000D02*
X9050000Y-5428000D01*
X9000000Y-5632000D02*
X9000000Y-5732000D01*
X8950000Y-5682000D02*
X9050000Y-5682000D01*
X9000000Y-5886000D02*
X9000000Y-5986000D01*
X8950000Y-5936000D02*
X9050000Y-5936000D01*
X9000000Y-6140000D02*
X9000000Y-6240000D01*
X8950000Y-6190000D02*
X9050000Y-6190000D01*
X9000000Y-6394000D02*
X9000000Y-6494000D01*
X8950000Y-6444000D02*
X9050000Y-6444000D01*
X11030000Y-3600000D02*
X11030000Y-3700000D01*
X10980000Y-3650000D02*
X11080000Y-3650000D01*
X11030000Y-3854000D02*
X11030000Y-3954000D01*
X10980000Y-3904000D02*
X11080000Y-3904000D01*
X11030000Y-4108000D02*
X11030000Y-4208000D01*
X10980000Y-4158000D02*
X11080000Y-4158000D01*
X11030000Y-4362000D02*
X11030000Y-4462000D01*
X10980000Y-4412000D02*
X11080000Y-4412000D01*
X11030000Y-4616000D02*
X11030000Y-4716000D01*
X10980000Y-4666000D02*
X11080000Y-4666000D01*
X11030000Y-4870000D02*
X11030000Y-4970000D01*
X10980000Y-4920000D02*
X11080000Y-4920000D01*
X11030000Y-5124000D02*
X11030000Y-5224000D01*
X10980000Y-5174000D02*
X11080000Y-5174000D01*
X11030000Y-5378000D02*
X11030000Y-5478000D01*
X10980000Y-5428000D02*
X11080000Y-5428000D01*
X11030000Y-5632000D02*
X11030000Y-5732000D01*
X10980000Y-5682000D02*
X11080000Y-5682000D01*
X11030000Y-5886000D02*
X11030000Y-5986000D01*
X10980000Y-5936000D02*
X11080000Y-5936000D01*
X11030000Y-6140000D02*
X11030000Y-6240000D01*
X10980000Y-6190000D02*
X11080000Y-6190000D01*
X11030000Y-6394000D02*
X11030000Y-6494000D01*
X10980000Y-6444000D02*
X11080000Y-6444000D01*
D11*
X9042619Y-7307524D02*
X9042619Y-7107524D01*
X9042619Y-7107524D02*
X9090238Y-7107524D01*
X9090238Y-7107524D02*
X9118810Y-7117048D01*
X9118810Y-7117048D02*
X9137857Y-7136095D01*
X9137857Y-7136095D02*
X9147381Y-7155143D01*
X9147381Y-7155143D02*
X9156905Y-7193238D01*
X9156905Y-7193238D02*
X9156905Y-7221809D01*
X9156905Y-7221809D02*
X9147381Y-7259905D01*
X9147381Y-7259905D02*
X9137857Y-7278952D01*
X9137857Y-7278952D02*
X9118810Y-7298000D01*
X9118810Y-7298000D02*
X9090238Y-7307524D01*
X9090238Y-7307524D02*
X9042619Y-7307524D01*
X9242619Y-7307524D02*
X9242619Y-7174190D01*
X9242619Y-7212286D02*
X9252143Y-7193238D01*
X9252143Y-7193238D02*
X9261667Y-7183714D01*
X9261667Y-7183714D02*
X9280714Y-7174190D01*
X9280714Y-7174190D02*
X9299762Y-7174190D01*
X9366429Y-7307524D02*
X9366429Y-7174190D01*
X9366429Y-7107524D02*
X9356905Y-7117048D01*
X9356905Y-7117048D02*
X9366429Y-7126571D01*
X9366429Y-7126571D02*
X9375952Y-7117048D01*
X9375952Y-7117048D02*
X9366429Y-7107524D01*
X9366429Y-7107524D02*
X9366429Y-7126571D01*
X9490238Y-7307524D02*
X9471190Y-7298000D01*
X9471190Y-7298000D02*
X9461667Y-7278952D01*
X9461667Y-7278952D02*
X9461667Y-7107524D01*
X9595000Y-7307524D02*
X9575952Y-7298000D01*
X9575952Y-7298000D02*
X9566429Y-7278952D01*
X9566429Y-7278952D02*
X9566429Y-7107524D01*
X9823571Y-7307524D02*
X9823571Y-7107524D01*
X9823571Y-7107524D02*
X9890238Y-7250381D01*
X9890238Y-7250381D02*
X9956905Y-7107524D01*
X9956905Y-7107524D02*
X9956905Y-7307524D01*
X10137857Y-7307524D02*
X10137857Y-7202762D01*
X10137857Y-7202762D02*
X10128333Y-7183714D01*
X10128333Y-7183714D02*
X10109286Y-7174190D01*
X10109286Y-7174190D02*
X10071190Y-7174190D01*
X10071190Y-7174190D02*
X10052143Y-7183714D01*
X10137857Y-7298000D02*
X10118810Y-7307524D01*
X10118810Y-7307524D02*
X10071190Y-7307524D01*
X10071190Y-7307524D02*
X10052143Y-7298000D01*
X10052143Y-7298000D02*
X10042619Y-7278952D01*
X10042619Y-7278952D02*
X10042619Y-7259905D01*
X10042619Y-7259905D02*
X10052143Y-7240857D01*
X10052143Y-7240857D02*
X10071190Y-7231333D01*
X10071190Y-7231333D02*
X10118810Y-7231333D01*
X10118810Y-7231333D02*
X10137857Y-7221809D01*
X10233095Y-7174190D02*
X10233095Y-7374190D01*
X10233095Y-7183714D02*
X10252143Y-7174190D01*
X10252143Y-7174190D02*
X10290238Y-7174190D01*
X10290238Y-7174190D02*
X10309286Y-7183714D01*
X10309286Y-7183714D02*
X10318810Y-7193238D01*
X10318810Y-7193238D02*
X10328333Y-7212286D01*
X10328333Y-7212286D02*
X10328333Y-7269428D01*
X10328333Y-7269428D02*
X10318810Y-7288476D01*
X10318810Y-7288476D02*
X10309286Y-7298000D01*
X10309286Y-7298000D02*
X10290238Y-7307524D01*
X10290238Y-7307524D02*
X10252143Y-7307524D01*
X10252143Y-7307524D02*
X10233095Y-7298000D01*
X10414048Y-7288476D02*
X10423571Y-7298000D01*
X10423571Y-7298000D02*
X10414048Y-7307524D01*
X10414048Y-7307524D02*
X10404524Y-7298000D01*
X10404524Y-7298000D02*
X10414048Y-7288476D01*
X10414048Y-7288476D02*
X10414048Y-7307524D01*
X10414048Y-7183714D02*
X10423571Y-7193238D01*
X10423571Y-7193238D02*
X10414048Y-7202762D01*
X10414048Y-7202762D02*
X10404524Y-7193238D01*
X10404524Y-7193238D02*
X10414048Y-7183714D01*
X10414048Y-7183714D02*
X10414048Y-7202762D01*
D12*
X8765000Y-7620000D02*
X8795000Y-7650000D01*
X8795000Y-7620000D02*
X8765000Y-7650000D01*
D11*
X9080714Y-7527524D02*
X9099762Y-7527524D01*
X9099762Y-7527524D02*
X9118810Y-7537048D01*
X9118810Y-7537048D02*
X9128333Y-7546571D01*
X9128333Y-7546571D02*
X9137857Y-7565619D01*
X9137857Y-7565619D02*
X9147381Y-7603714D01*
X9147381Y-7603714D02*
X9147381Y-7651333D01*
X9147381Y-7651333D02*
X9137857Y-7689428D01*
X9137857Y-7689428D02*
X9128333Y-7708476D01*
X9128333Y-7708476D02*
X9118810Y-7718000D01*
X9118810Y-7718000D02*
X9099762Y-7727524D01*
X9099762Y-7727524D02*
X9080714Y-7727524D01*
X9080714Y-7727524D02*
X9061667Y-7718000D01*
X9061667Y-7718000D02*
X9052143Y-7708476D01*
X9052143Y-7708476D02*
X9042619Y-7689428D01*
X9042619Y-7689428D02*
X9033095Y-7651333D01*
X9033095Y-7651333D02*
X9033095Y-7603714D01*
X9033095Y-7603714D02*
X9042619Y-7565619D01*
X9042619Y-7565619D02*
X9052143Y-7546571D01*
X9052143Y-7546571D02*
X9061667Y-7537048D01*
X9061667Y-7537048D02*
X9080714Y-7527524D01*
X9233095Y-7708476D02*
X9242619Y-7718000D01*
X9242619Y-7718000D02*
X9233095Y-7727524D01*
X9233095Y-7727524D02*
X9223571Y-7718000D01*
X9223571Y-7718000D02*
X9233095Y-7708476D01*
X9233095Y-7708476D02*
X9233095Y-7727524D01*
X9309286Y-7527524D02*
X9433095Y-7527524D01*
X9433095Y-7527524D02*
X9366429Y-7603714D01*
X9366429Y-7603714D02*
X9395000Y-7603714D01*
X9395000Y-7603714D02*
X9414048Y-7613238D01*
X9414048Y-7613238D02*
X9423571Y-7622762D01*
X9423571Y-7622762D02*
X9433095Y-7641809D01*
X9433095Y-7641809D02*
X9433095Y-7689428D01*
X9433095Y-7689428D02*
X9423571Y-7708476D01*
X9423571Y-7708476D02*
X9414048Y-7718000D01*
X9414048Y-7718000D02*
X9395000Y-7727524D01*
X9395000Y-7727524D02*
X9337857Y-7727524D01*
X9337857Y-7727524D02*
X9318810Y-7718000D01*
X9318810Y-7718000D02*
X9309286Y-7708476D01*
X9556905Y-7527524D02*
X9575952Y-7527524D01*
X9575952Y-7527524D02*
X9595000Y-7537048D01*
X9595000Y-7537048D02*
X9604524Y-7546571D01*
X9604524Y-7546571D02*
X9614048Y-7565619D01*
X9614048Y-7565619D02*
X9623571Y-7603714D01*
X9623571Y-7603714D02*
X9623571Y-7651333D01*
X9623571Y-7651333D02*
X9614048Y-7689428D01*
X9614048Y-7689428D02*
X9604524Y-7708476D01*
X9604524Y-7708476D02*
X9595000Y-7718000D01*
X9595000Y-7718000D02*
X9575952Y-7727524D01*
X9575952Y-7727524D02*
X9556905Y-7727524D01*
X9556905Y-7727524D02*
X9537857Y-7718000D01*
X9537857Y-7718000D02*
X9528333Y-7708476D01*
X9528333Y-7708476D02*
X9518810Y-7689428D01*
X9518810Y-7689428D02*
X9509286Y-7651333D01*
X9509286Y-7651333D02*
X9509286Y-7603714D01*
X9509286Y-7603714D02*
X9518810Y-7565619D01*
X9518810Y-7565619D02*
X9528333Y-7546571D01*
X9528333Y-7546571D02*
X9537857Y-7537048D01*
X9537857Y-7537048D02*
X9556905Y-7527524D01*
X9747381Y-7527524D02*
X9766429Y-7527524D01*
X9766429Y-7527524D02*
X9785476Y-7537048D01*
X9785476Y-7537048D02*
X9795000Y-7546571D01*
X9795000Y-7546571D02*
X9804524Y-7565619D01*
X9804524Y-7565619D02*
X9814048Y-7603714D01*
X9814048Y-7603714D02*
X9814048Y-7651333D01*
X9814048Y-7651333D02*
X9804524Y-7689428D01*
X9804524Y-7689428D02*
X9795000Y-7708476D01*
X9795000Y-7708476D02*
X9785476Y-7718000D01*
X9785476Y-7718000D02*
X9766429Y-7727524D01*
X9766429Y-7727524D02*
X9747381Y-7727524D01*
X9747381Y-7727524D02*
X9728333Y-7718000D01*
X9728333Y-7718000D02*
X9718810Y-7708476D01*
X9718810Y-7708476D02*
X9709286Y-7689428D01*
X9709286Y-7689428D02*
X9699762Y-7651333D01*
X9699762Y-7651333D02*
X9699762Y-7603714D01*
X9699762Y-7603714D02*
X9709286Y-7565619D01*
X9709286Y-7565619D02*
X9718810Y-7546571D01*
X9718810Y-7546571D02*
X9728333Y-7537048D01*
X9728333Y-7537048D02*
X9747381Y-7527524D01*
X9899762Y-7727524D02*
X9899762Y-7594190D01*
X9899762Y-7613238D02*
X9909286Y-7603714D01*
X9909286Y-7603714D02*
X9928333Y-7594190D01*
X9928333Y-7594190D02*
X9956905Y-7594190D01*
X9956905Y-7594190D02*
X9975952Y-7603714D01*
X9975952Y-7603714D02*
X9985476Y-7622762D01*
X9985476Y-7622762D02*
X9985476Y-7727524D01*
X9985476Y-7622762D02*
X9995000Y-7603714D01*
X9995000Y-7603714D02*
X10014048Y-7594190D01*
X10014048Y-7594190D02*
X10042619Y-7594190D01*
X10042619Y-7594190D02*
X10061667Y-7603714D01*
X10061667Y-7603714D02*
X10071191Y-7622762D01*
X10071191Y-7622762D02*
X10071191Y-7727524D01*
X10166429Y-7727524D02*
X10166429Y-7594190D01*
X10166429Y-7613238D02*
X10175952Y-7603714D01*
X10175952Y-7603714D02*
X10195000Y-7594190D01*
X10195000Y-7594190D02*
X10223572Y-7594190D01*
X10223572Y-7594190D02*
X10242619Y-7603714D01*
X10242619Y-7603714D02*
X10252143Y-7622762D01*
X10252143Y-7622762D02*
X10252143Y-7727524D01*
X10252143Y-7622762D02*
X10261667Y-7603714D01*
X10261667Y-7603714D02*
X10280714Y-7594190D01*
X10280714Y-7594190D02*
X10309286Y-7594190D01*
X10309286Y-7594190D02*
X10328333Y-7603714D01*
X10328333Y-7603714D02*
X10337857Y-7622762D01*
X10337857Y-7622762D02*
X10337857Y-7727524D01*
X10728333Y-7518000D02*
X10556905Y-7775143D01*
X10985476Y-7527524D02*
X11004524Y-7527524D01*
X11004524Y-7527524D02*
X11023572Y-7537048D01*
X11023572Y-7537048D02*
X11033095Y-7546571D01*
X11033095Y-7546571D02*
X11042619Y-7565619D01*
X11042619Y-7565619D02*
X11052143Y-7603714D01*
X11052143Y-7603714D02*
X11052143Y-7651333D01*
X11052143Y-7651333D02*
X11042619Y-7689428D01*
X11042619Y-7689428D02*
X11033095Y-7708476D01*
X11033095Y-7708476D02*
X11023572Y-7718000D01*
X11023572Y-7718000D02*
X11004524Y-7727524D01*
X11004524Y-7727524D02*
X10985476Y-7727524D01*
X10985476Y-7727524D02*
X10966429Y-7718000D01*
X10966429Y-7718000D02*
X10956905Y-7708476D01*
X10956905Y-7708476D02*
X10947381Y-7689428D01*
X10947381Y-7689428D02*
X10937857Y-7651333D01*
X10937857Y-7651333D02*
X10937857Y-7603714D01*
X10937857Y-7603714D02*
X10947381Y-7565619D01*
X10947381Y-7565619D02*
X10956905Y-7546571D01*
X10956905Y-7546571D02*
X10966429Y-7537048D01*
X10966429Y-7537048D02*
X10985476Y-7527524D01*
X11137857Y-7708476D02*
X11147381Y-7718000D01*
X11147381Y-7718000D02*
X11137857Y-7727524D01*
X11137857Y-7727524D02*
X11128334Y-7718000D01*
X11128334Y-7718000D02*
X11137857Y-7708476D01*
X11137857Y-7708476D02*
X11137857Y-7727524D01*
X11271191Y-7527524D02*
X11290238Y-7527524D01*
X11290238Y-7527524D02*
X11309286Y-7537048D01*
X11309286Y-7537048D02*
X11318810Y-7546571D01*
X11318810Y-7546571D02*
X11328333Y-7565619D01*
X11328333Y-7565619D02*
X11337857Y-7603714D01*
X11337857Y-7603714D02*
X11337857Y-7651333D01*
X11337857Y-7651333D02*
X11328333Y-7689428D01*
X11328333Y-7689428D02*
X11318810Y-7708476D01*
X11318810Y-7708476D02*
X11309286Y-7718000D01*
X11309286Y-7718000D02*
X11290238Y-7727524D01*
X11290238Y-7727524D02*
X11271191Y-7727524D01*
X11271191Y-7727524D02*
X11252143Y-7718000D01*
X11252143Y-7718000D02*
X11242619Y-7708476D01*
X11242619Y-7708476D02*
X11233095Y-7689428D01*
X11233095Y-7689428D02*
X11223572Y-7651333D01*
X11223572Y-7651333D02*
X11223572Y-7603714D01*
X11223572Y-7603714D02*
X11233095Y-7565619D01*
X11233095Y-7565619D02*
X11242619Y-7546571D01*
X11242619Y-7546571D02*
X11252143Y-7537048D01*
X11252143Y-7537048D02*
X11271191Y-7527524D01*
X11528333Y-7727524D02*
X11414048Y-7727524D01*
X11471191Y-7727524D02*
X11471191Y-7527524D01*
X11471191Y-7527524D02*
X11452143Y-7556095D01*
X11452143Y-7556095D02*
X11433095Y-7575143D01*
X11433095Y-7575143D02*
X11414048Y-7584667D01*
X11718810Y-7727524D02*
X11604524Y-7727524D01*
X11661667Y-7727524D02*
X11661667Y-7527524D01*
X11661667Y-7527524D02*
X11642619Y-7556095D01*
X11642619Y-7556095D02*
X11623572Y-7575143D01*
X11623572Y-7575143D02*
X11604524Y-7584667D01*
X11833095Y-7613238D02*
X11814048Y-7603714D01*
X11814048Y-7603714D02*
X11804524Y-7594190D01*
X11804524Y-7594190D02*
X11795000Y-7575143D01*
X11795000Y-7575143D02*
X11795000Y-7565619D01*
X11795000Y-7565619D02*
X11804524Y-7546571D01*
X11804524Y-7546571D02*
X11814048Y-7537048D01*
X11814048Y-7537048D02*
X11833095Y-7527524D01*
X11833095Y-7527524D02*
X11871191Y-7527524D01*
X11871191Y-7527524D02*
X11890238Y-7537048D01*
X11890238Y-7537048D02*
X11899762Y-7546571D01*
X11899762Y-7546571D02*
X11909286Y-7565619D01*
X11909286Y-7565619D02*
X11909286Y-7575143D01*
X11909286Y-7575143D02*
X11899762Y-7594190D01*
X11899762Y-7594190D02*
X11890238Y-7603714D01*
X11890238Y-7603714D02*
X11871191Y-7613238D01*
X11871191Y-7613238D02*
X11833095Y-7613238D01*
X11833095Y-7613238D02*
X11814048Y-7622762D01*
X11814048Y-7622762D02*
X11804524Y-7632286D01*
X11804524Y-7632286D02*
X11795000Y-7651333D01*
X11795000Y-7651333D02*
X11795000Y-7689428D01*
X11795000Y-7689428D02*
X11804524Y-7708476D01*
X11804524Y-7708476D02*
X11814048Y-7718000D01*
X11814048Y-7718000D02*
X11833095Y-7727524D01*
X11833095Y-7727524D02*
X11871191Y-7727524D01*
X11871191Y-7727524D02*
X11890238Y-7718000D01*
X11890238Y-7718000D02*
X11899762Y-7708476D01*
X11899762Y-7708476D02*
X11909286Y-7689428D01*
X11909286Y-7689428D02*
X11909286Y-7651333D01*
X11909286Y-7651333D02*
X11899762Y-7632286D01*
X11899762Y-7632286D02*
X11890238Y-7622762D01*
X11890238Y-7622762D02*
X11871191Y-7613238D01*
X11985476Y-7527524D02*
X11985476Y-7565619D01*
X12061667Y-7527524D02*
X12061667Y-7565619D01*
X12356905Y-7803714D02*
X12347381Y-7794190D01*
X12347381Y-7794190D02*
X12328334Y-7765619D01*
X12328334Y-7765619D02*
X12318810Y-7746571D01*
X12318810Y-7746571D02*
X12309286Y-7718000D01*
X12309286Y-7718000D02*
X12299762Y-7670381D01*
X12299762Y-7670381D02*
X12299762Y-7632286D01*
X12299762Y-7632286D02*
X12309286Y-7584667D01*
X12309286Y-7584667D02*
X12318810Y-7556095D01*
X12318810Y-7556095D02*
X12328334Y-7537048D01*
X12328334Y-7537048D02*
X12347381Y-7508476D01*
X12347381Y-7508476D02*
X12356905Y-7498952D01*
X12414048Y-7527524D02*
X12537857Y-7527524D01*
X12537857Y-7527524D02*
X12471191Y-7603714D01*
X12471191Y-7603714D02*
X12499762Y-7603714D01*
X12499762Y-7603714D02*
X12518810Y-7613238D01*
X12518810Y-7613238D02*
X12528334Y-7622762D01*
X12528334Y-7622762D02*
X12537857Y-7641809D01*
X12537857Y-7641809D02*
X12537857Y-7689428D01*
X12537857Y-7689428D02*
X12528334Y-7708476D01*
X12528334Y-7708476D02*
X12518810Y-7718000D01*
X12518810Y-7718000D02*
X12499762Y-7727524D01*
X12499762Y-7727524D02*
X12442619Y-7727524D01*
X12442619Y-7727524D02*
X12423572Y-7718000D01*
X12423572Y-7718000D02*
X12414048Y-7708476D01*
X12633095Y-7727524D02*
X12671191Y-7727524D01*
X12671191Y-7727524D02*
X12690238Y-7718000D01*
X12690238Y-7718000D02*
X12699762Y-7708476D01*
X12699762Y-7708476D02*
X12718810Y-7679905D01*
X12718810Y-7679905D02*
X12728334Y-7641809D01*
X12728334Y-7641809D02*
X12728334Y-7565619D01*
X12728334Y-7565619D02*
X12718810Y-7546571D01*
X12718810Y-7546571D02*
X12709286Y-7537048D01*
X12709286Y-7537048D02*
X12690238Y-7527524D01*
X12690238Y-7527524D02*
X12652143Y-7527524D01*
X12652143Y-7527524D02*
X12633095Y-7537048D01*
X12633095Y-7537048D02*
X12623572Y-7546571D01*
X12623572Y-7546571D02*
X12614048Y-7565619D01*
X12614048Y-7565619D02*
X12614048Y-7613238D01*
X12614048Y-7613238D02*
X12623572Y-7632286D01*
X12623572Y-7632286D02*
X12633095Y-7641809D01*
X12633095Y-7641809D02*
X12652143Y-7651333D01*
X12652143Y-7651333D02*
X12690238Y-7651333D01*
X12690238Y-7651333D02*
X12709286Y-7641809D01*
X12709286Y-7641809D02*
X12718810Y-7632286D01*
X12718810Y-7632286D02*
X12728334Y-7613238D01*
X12966429Y-7727524D02*
X12966429Y-7527524D01*
X13052143Y-7727524D02*
X13052143Y-7622762D01*
X13052143Y-7622762D02*
X13042619Y-7603714D01*
X13042619Y-7603714D02*
X13023572Y-7594190D01*
X13023572Y-7594190D02*
X12995000Y-7594190D01*
X12995000Y-7594190D02*
X12975953Y-7603714D01*
X12975953Y-7603714D02*
X12966429Y-7613238D01*
X13175953Y-7727524D02*
X13156905Y-7718000D01*
X13156905Y-7718000D02*
X13147381Y-7708476D01*
X13147381Y-7708476D02*
X13137857Y-7689428D01*
X13137857Y-7689428D02*
X13137857Y-7632286D01*
X13137857Y-7632286D02*
X13147381Y-7613238D01*
X13147381Y-7613238D02*
X13156905Y-7603714D01*
X13156905Y-7603714D02*
X13175953Y-7594190D01*
X13175953Y-7594190D02*
X13204524Y-7594190D01*
X13204524Y-7594190D02*
X13223572Y-7603714D01*
X13223572Y-7603714D02*
X13233096Y-7613238D01*
X13233096Y-7613238D02*
X13242619Y-7632286D01*
X13242619Y-7632286D02*
X13242619Y-7689428D01*
X13242619Y-7689428D02*
X13233096Y-7708476D01*
X13233096Y-7708476D02*
X13223572Y-7718000D01*
X13223572Y-7718000D02*
X13204524Y-7727524D01*
X13204524Y-7727524D02*
X13175953Y-7727524D01*
X13356905Y-7727524D02*
X13337857Y-7718000D01*
X13337857Y-7718000D02*
X13328334Y-7698952D01*
X13328334Y-7698952D02*
X13328334Y-7527524D01*
X13509286Y-7718000D02*
X13490238Y-7727524D01*
X13490238Y-7727524D02*
X13452143Y-7727524D01*
X13452143Y-7727524D02*
X13433096Y-7718000D01*
X13433096Y-7718000D02*
X13423572Y-7698952D01*
X13423572Y-7698952D02*
X13423572Y-7622762D01*
X13423572Y-7622762D02*
X13433096Y-7603714D01*
X13433096Y-7603714D02*
X13452143Y-7594190D01*
X13452143Y-7594190D02*
X13490238Y-7594190D01*
X13490238Y-7594190D02*
X13509286Y-7603714D01*
X13509286Y-7603714D02*
X13518810Y-7622762D01*
X13518810Y-7622762D02*
X13518810Y-7641809D01*
X13518810Y-7641809D02*
X13423572Y-7660857D01*
X13595000Y-7718000D02*
X13614048Y-7727524D01*
X13614048Y-7727524D02*
X13652143Y-7727524D01*
X13652143Y-7727524D02*
X13671191Y-7718000D01*
X13671191Y-7718000D02*
X13680715Y-7698952D01*
X13680715Y-7698952D02*
X13680715Y-7689428D01*
X13680715Y-7689428D02*
X13671191Y-7670381D01*
X13671191Y-7670381D02*
X13652143Y-7660857D01*
X13652143Y-7660857D02*
X13623572Y-7660857D01*
X13623572Y-7660857D02*
X13604524Y-7651333D01*
X13604524Y-7651333D02*
X13595000Y-7632286D01*
X13595000Y-7632286D02*
X13595000Y-7622762D01*
X13595000Y-7622762D02*
X13604524Y-7603714D01*
X13604524Y-7603714D02*
X13623572Y-7594190D01*
X13623572Y-7594190D02*
X13652143Y-7594190D01*
X13652143Y-7594190D02*
X13671191Y-7603714D01*
X13747381Y-7803714D02*
X13756905Y-7794190D01*
X13756905Y-7794190D02*
X13775953Y-7765619D01*
X13775953Y-7765619D02*
X13785477Y-7746571D01*
X13785477Y-7746571D02*
X13795000Y-7718000D01*
X13795000Y-7718000D02*
X13804524Y-7670381D01*
X13804524Y-7670381D02*
X13804524Y-7632286D01*
X13804524Y-7632286D02*
X13795000Y-7584667D01*
X13795000Y-7584667D02*
X13785477Y-7556095D01*
X13785477Y-7556095D02*
X13775953Y-7537048D01*
X13775953Y-7537048D02*
X13756905Y-7508476D01*
X13756905Y-7508476D02*
X13747381Y-7498952D01*
D13*
X8795000Y-7899000D02*
G75*
G03*
X8795000Y-7899000I-47500J0D01*
G01*
D11*
X9080714Y-7791524D02*
X9099762Y-7791524D01*
X9099762Y-7791524D02*
X9118810Y-7801048D01*
X9118810Y-7801048D02*
X9128333Y-7810571D01*
X9128333Y-7810571D02*
X9137857Y-7829619D01*
X9137857Y-7829619D02*
X9147381Y-7867714D01*
X9147381Y-7867714D02*
X9147381Y-7915333D01*
X9147381Y-7915333D02*
X9137857Y-7953428D01*
X9137857Y-7953428D02*
X9128333Y-7972476D01*
X9128333Y-7972476D02*
X9118810Y-7982000D01*
X9118810Y-7982000D02*
X9099762Y-7991524D01*
X9099762Y-7991524D02*
X9080714Y-7991524D01*
X9080714Y-7991524D02*
X9061667Y-7982000D01*
X9061667Y-7982000D02*
X9052143Y-7972476D01*
X9052143Y-7972476D02*
X9042619Y-7953428D01*
X9042619Y-7953428D02*
X9033095Y-7915333D01*
X9033095Y-7915333D02*
X9033095Y-7867714D01*
X9033095Y-7867714D02*
X9042619Y-7829619D01*
X9042619Y-7829619D02*
X9052143Y-7810571D01*
X9052143Y-7810571D02*
X9061667Y-7801048D01*
X9061667Y-7801048D02*
X9080714Y-7791524D01*
X9233095Y-7972476D02*
X9242619Y-7982000D01*
X9242619Y-7982000D02*
X9233095Y-7991524D01*
X9233095Y-7991524D02*
X9223571Y-7982000D01*
X9223571Y-7982000D02*
X9233095Y-7972476D01*
X9233095Y-7972476D02*
X9233095Y-7991524D01*
X9337857Y-7991524D02*
X9375952Y-7991524D01*
X9375952Y-7991524D02*
X9395000Y-7982000D01*
X9395000Y-7982000D02*
X9404524Y-7972476D01*
X9404524Y-7972476D02*
X9423571Y-7943905D01*
X9423571Y-7943905D02*
X9433095Y-7905809D01*
X9433095Y-7905809D02*
X9433095Y-7829619D01*
X9433095Y-7829619D02*
X9423571Y-7810571D01*
X9423571Y-7810571D02*
X9414048Y-7801048D01*
X9414048Y-7801048D02*
X9395000Y-7791524D01*
X9395000Y-7791524D02*
X9356905Y-7791524D01*
X9356905Y-7791524D02*
X9337857Y-7801048D01*
X9337857Y-7801048D02*
X9328333Y-7810571D01*
X9328333Y-7810571D02*
X9318810Y-7829619D01*
X9318810Y-7829619D02*
X9318810Y-7877238D01*
X9318810Y-7877238D02*
X9328333Y-7896286D01*
X9328333Y-7896286D02*
X9337857Y-7905809D01*
X9337857Y-7905809D02*
X9356905Y-7915333D01*
X9356905Y-7915333D02*
X9395000Y-7915333D01*
X9395000Y-7915333D02*
X9414048Y-7905809D01*
X9414048Y-7905809D02*
X9423571Y-7896286D01*
X9423571Y-7896286D02*
X9433095Y-7877238D01*
X9614048Y-7791524D02*
X9518810Y-7791524D01*
X9518810Y-7791524D02*
X9509286Y-7886762D01*
X9509286Y-7886762D02*
X9518810Y-7877238D01*
X9518810Y-7877238D02*
X9537857Y-7867714D01*
X9537857Y-7867714D02*
X9585476Y-7867714D01*
X9585476Y-7867714D02*
X9604524Y-7877238D01*
X9604524Y-7877238D02*
X9614048Y-7886762D01*
X9614048Y-7886762D02*
X9623571Y-7905809D01*
X9623571Y-7905809D02*
X9623571Y-7953428D01*
X9623571Y-7953428D02*
X9614048Y-7972476D01*
X9614048Y-7972476D02*
X9604524Y-7982000D01*
X9604524Y-7982000D02*
X9585476Y-7991524D01*
X9585476Y-7991524D02*
X9537857Y-7991524D01*
X9537857Y-7991524D02*
X9518810Y-7982000D01*
X9518810Y-7982000D02*
X9509286Y-7972476D01*
X9747381Y-7791524D02*
X9766429Y-7791524D01*
X9766429Y-7791524D02*
X9785476Y-7801048D01*
X9785476Y-7801048D02*
X9795000Y-7810571D01*
X9795000Y-7810571D02*
X9804524Y-7829619D01*
X9804524Y-7829619D02*
X9814048Y-7867714D01*
X9814048Y-7867714D02*
X9814048Y-7915333D01*
X9814048Y-7915333D02*
X9804524Y-7953428D01*
X9804524Y-7953428D02*
X9795000Y-7972476D01*
X9795000Y-7972476D02*
X9785476Y-7982000D01*
X9785476Y-7982000D02*
X9766429Y-7991524D01*
X9766429Y-7991524D02*
X9747381Y-7991524D01*
X9747381Y-7991524D02*
X9728333Y-7982000D01*
X9728333Y-7982000D02*
X9718810Y-7972476D01*
X9718810Y-7972476D02*
X9709286Y-7953428D01*
X9709286Y-7953428D02*
X9699762Y-7915333D01*
X9699762Y-7915333D02*
X9699762Y-7867714D01*
X9699762Y-7867714D02*
X9709286Y-7829619D01*
X9709286Y-7829619D02*
X9718810Y-7810571D01*
X9718810Y-7810571D02*
X9728333Y-7801048D01*
X9728333Y-7801048D02*
X9747381Y-7791524D01*
X9899762Y-7991524D02*
X9899762Y-7858190D01*
X9899762Y-7877238D02*
X9909286Y-7867714D01*
X9909286Y-7867714D02*
X9928333Y-7858190D01*
X9928333Y-7858190D02*
X9956905Y-7858190D01*
X9956905Y-7858190D02*
X9975952Y-7867714D01*
X9975952Y-7867714D02*
X9985476Y-7886762D01*
X9985476Y-7886762D02*
X9985476Y-7991524D01*
X9985476Y-7886762D02*
X9995000Y-7867714D01*
X9995000Y-7867714D02*
X10014048Y-7858190D01*
X10014048Y-7858190D02*
X10042619Y-7858190D01*
X10042619Y-7858190D02*
X10061667Y-7867714D01*
X10061667Y-7867714D02*
X10071191Y-7886762D01*
X10071191Y-7886762D02*
X10071191Y-7991524D01*
X10166429Y-7991524D02*
X10166429Y-7858190D01*
X10166429Y-7877238D02*
X10175952Y-7867714D01*
X10175952Y-7867714D02*
X10195000Y-7858190D01*
X10195000Y-7858190D02*
X10223572Y-7858190D01*
X10223572Y-7858190D02*
X10242619Y-7867714D01*
X10242619Y-7867714D02*
X10252143Y-7886762D01*
X10252143Y-7886762D02*
X10252143Y-7991524D01*
X10252143Y-7886762D02*
X10261667Y-7867714D01*
X10261667Y-7867714D02*
X10280714Y-7858190D01*
X10280714Y-7858190D02*
X10309286Y-7858190D01*
X10309286Y-7858190D02*
X10328333Y-7867714D01*
X10328333Y-7867714D02*
X10337857Y-7886762D01*
X10337857Y-7886762D02*
X10337857Y-7991524D01*
X10728333Y-7782000D02*
X10556905Y-8039143D01*
X10985476Y-7791524D02*
X11004524Y-7791524D01*
X11004524Y-7791524D02*
X11023572Y-7801048D01*
X11023572Y-7801048D02*
X11033095Y-7810571D01*
X11033095Y-7810571D02*
X11042619Y-7829619D01*
X11042619Y-7829619D02*
X11052143Y-7867714D01*
X11052143Y-7867714D02*
X11052143Y-7915333D01*
X11052143Y-7915333D02*
X11042619Y-7953428D01*
X11042619Y-7953428D02*
X11033095Y-7972476D01*
X11033095Y-7972476D02*
X11023572Y-7982000D01*
X11023572Y-7982000D02*
X11004524Y-7991524D01*
X11004524Y-7991524D02*
X10985476Y-7991524D01*
X10985476Y-7991524D02*
X10966429Y-7982000D01*
X10966429Y-7982000D02*
X10956905Y-7972476D01*
X10956905Y-7972476D02*
X10947381Y-7953428D01*
X10947381Y-7953428D02*
X10937857Y-7915333D01*
X10937857Y-7915333D02*
X10937857Y-7867714D01*
X10937857Y-7867714D02*
X10947381Y-7829619D01*
X10947381Y-7829619D02*
X10956905Y-7810571D01*
X10956905Y-7810571D02*
X10966429Y-7801048D01*
X10966429Y-7801048D02*
X10985476Y-7791524D01*
X11137857Y-7972476D02*
X11147381Y-7982000D01*
X11147381Y-7982000D02*
X11137857Y-7991524D01*
X11137857Y-7991524D02*
X11128334Y-7982000D01*
X11128334Y-7982000D02*
X11137857Y-7972476D01*
X11137857Y-7972476D02*
X11137857Y-7991524D01*
X11271191Y-7791524D02*
X11290238Y-7791524D01*
X11290238Y-7791524D02*
X11309286Y-7801048D01*
X11309286Y-7801048D02*
X11318810Y-7810571D01*
X11318810Y-7810571D02*
X11328333Y-7829619D01*
X11328333Y-7829619D02*
X11337857Y-7867714D01*
X11337857Y-7867714D02*
X11337857Y-7915333D01*
X11337857Y-7915333D02*
X11328333Y-7953428D01*
X11328333Y-7953428D02*
X11318810Y-7972476D01*
X11318810Y-7972476D02*
X11309286Y-7982000D01*
X11309286Y-7982000D02*
X11290238Y-7991524D01*
X11290238Y-7991524D02*
X11271191Y-7991524D01*
X11271191Y-7991524D02*
X11252143Y-7982000D01*
X11252143Y-7982000D02*
X11242619Y-7972476D01*
X11242619Y-7972476D02*
X11233095Y-7953428D01*
X11233095Y-7953428D02*
X11223572Y-7915333D01*
X11223572Y-7915333D02*
X11223572Y-7867714D01*
X11223572Y-7867714D02*
X11233095Y-7829619D01*
X11233095Y-7829619D02*
X11242619Y-7810571D01*
X11242619Y-7810571D02*
X11252143Y-7801048D01*
X11252143Y-7801048D02*
X11271191Y-7791524D01*
X11404524Y-7791524D02*
X11528333Y-7791524D01*
X11528333Y-7791524D02*
X11461667Y-7867714D01*
X11461667Y-7867714D02*
X11490238Y-7867714D01*
X11490238Y-7867714D02*
X11509286Y-7877238D01*
X11509286Y-7877238D02*
X11518810Y-7886762D01*
X11518810Y-7886762D02*
X11528333Y-7905809D01*
X11528333Y-7905809D02*
X11528333Y-7953428D01*
X11528333Y-7953428D02*
X11518810Y-7972476D01*
X11518810Y-7972476D02*
X11509286Y-7982000D01*
X11509286Y-7982000D02*
X11490238Y-7991524D01*
X11490238Y-7991524D02*
X11433095Y-7991524D01*
X11433095Y-7991524D02*
X11414048Y-7982000D01*
X11414048Y-7982000D02*
X11404524Y-7972476D01*
X11595000Y-7791524D02*
X11728333Y-7791524D01*
X11728333Y-7791524D02*
X11642619Y-7991524D01*
X11890238Y-7858190D02*
X11890238Y-7991524D01*
X11842619Y-7782000D02*
X11795000Y-7924857D01*
X11795000Y-7924857D02*
X11918810Y-7924857D01*
X11985476Y-7791524D02*
X11985476Y-7829619D01*
X12061667Y-7791524D02*
X12061667Y-7829619D01*
X12356905Y-8067714D02*
X12347381Y-8058190D01*
X12347381Y-8058190D02*
X12328334Y-8029619D01*
X12328334Y-8029619D02*
X12318810Y-8010571D01*
X12318810Y-8010571D02*
X12309286Y-7982000D01*
X12309286Y-7982000D02*
X12299762Y-7934381D01*
X12299762Y-7934381D02*
X12299762Y-7896286D01*
X12299762Y-7896286D02*
X12309286Y-7848667D01*
X12309286Y-7848667D02*
X12318810Y-7820095D01*
X12318810Y-7820095D02*
X12328334Y-7801048D01*
X12328334Y-7801048D02*
X12347381Y-7772476D01*
X12347381Y-7772476D02*
X12356905Y-7762952D01*
X12414048Y-7791524D02*
X12537857Y-7791524D01*
X12537857Y-7791524D02*
X12471191Y-7867714D01*
X12471191Y-7867714D02*
X12499762Y-7867714D01*
X12499762Y-7867714D02*
X12518810Y-7877238D01*
X12518810Y-7877238D02*
X12528334Y-7886762D01*
X12528334Y-7886762D02*
X12537857Y-7905809D01*
X12537857Y-7905809D02*
X12537857Y-7953428D01*
X12537857Y-7953428D02*
X12528334Y-7972476D01*
X12528334Y-7972476D02*
X12518810Y-7982000D01*
X12518810Y-7982000D02*
X12499762Y-7991524D01*
X12499762Y-7991524D02*
X12442619Y-7991524D01*
X12442619Y-7991524D02*
X12423572Y-7982000D01*
X12423572Y-7982000D02*
X12414048Y-7972476D01*
X12775953Y-7991524D02*
X12775953Y-7791524D01*
X12861667Y-7991524D02*
X12861667Y-7886762D01*
X12861667Y-7886762D02*
X12852143Y-7867714D01*
X12852143Y-7867714D02*
X12833096Y-7858190D01*
X12833096Y-7858190D02*
X12804524Y-7858190D01*
X12804524Y-7858190D02*
X12785476Y-7867714D01*
X12785476Y-7867714D02*
X12775953Y-7877238D01*
X12985476Y-7991524D02*
X12966429Y-7982000D01*
X12966429Y-7982000D02*
X12956905Y-7972476D01*
X12956905Y-7972476D02*
X12947381Y-7953428D01*
X12947381Y-7953428D02*
X12947381Y-7896286D01*
X12947381Y-7896286D02*
X12956905Y-7877238D01*
X12956905Y-7877238D02*
X12966429Y-7867714D01*
X12966429Y-7867714D02*
X12985476Y-7858190D01*
X12985476Y-7858190D02*
X13014048Y-7858190D01*
X13014048Y-7858190D02*
X13033096Y-7867714D01*
X13033096Y-7867714D02*
X13042619Y-7877238D01*
X13042619Y-7877238D02*
X13052143Y-7896286D01*
X13052143Y-7896286D02*
X13052143Y-7953428D01*
X13052143Y-7953428D02*
X13042619Y-7972476D01*
X13042619Y-7972476D02*
X13033096Y-7982000D01*
X13033096Y-7982000D02*
X13014048Y-7991524D01*
X13014048Y-7991524D02*
X12985476Y-7991524D01*
X13166429Y-7991524D02*
X13147381Y-7982000D01*
X13147381Y-7982000D02*
X13137857Y-7962952D01*
X13137857Y-7962952D02*
X13137857Y-7791524D01*
X13318810Y-7982000D02*
X13299762Y-7991524D01*
X13299762Y-7991524D02*
X13261667Y-7991524D01*
X13261667Y-7991524D02*
X13242619Y-7982000D01*
X13242619Y-7982000D02*
X13233096Y-7962952D01*
X13233096Y-7962952D02*
X13233096Y-7886762D01*
X13233096Y-7886762D02*
X13242619Y-7867714D01*
X13242619Y-7867714D02*
X13261667Y-7858190D01*
X13261667Y-7858190D02*
X13299762Y-7858190D01*
X13299762Y-7858190D02*
X13318810Y-7867714D01*
X13318810Y-7867714D02*
X13328334Y-7886762D01*
X13328334Y-7886762D02*
X13328334Y-7905809D01*
X13328334Y-7905809D02*
X13233096Y-7924857D01*
X13404524Y-7982000D02*
X13423572Y-7991524D01*
X13423572Y-7991524D02*
X13461667Y-7991524D01*
X13461667Y-7991524D02*
X13480715Y-7982000D01*
X13480715Y-7982000D02*
X13490238Y-7962952D01*
X13490238Y-7962952D02*
X13490238Y-7953428D01*
X13490238Y-7953428D02*
X13480715Y-7934381D01*
X13480715Y-7934381D02*
X13461667Y-7924857D01*
X13461667Y-7924857D02*
X13433096Y-7924857D01*
X13433096Y-7924857D02*
X13414048Y-7915333D01*
X13414048Y-7915333D02*
X13404524Y-7896286D01*
X13404524Y-7896286D02*
X13404524Y-7886762D01*
X13404524Y-7886762D02*
X13414048Y-7867714D01*
X13414048Y-7867714D02*
X13433096Y-7858190D01*
X13433096Y-7858190D02*
X13461667Y-7858190D01*
X13461667Y-7858190D02*
X13480715Y-7867714D01*
X13556905Y-8067714D02*
X13566429Y-8058190D01*
X13566429Y-8058190D02*
X13585477Y-8029619D01*
X13585477Y-8029619D02*
X13595000Y-8010571D01*
X13595000Y-8010571D02*
X13604524Y-7982000D01*
X13604524Y-7982000D02*
X13614048Y-7934381D01*
X13614048Y-7934381D02*
X13614048Y-7896286D01*
X13614048Y-7896286D02*
X13604524Y-7848667D01*
X13604524Y-7848667D02*
X13595000Y-7820095D01*
X13595000Y-7820095D02*
X13585477Y-7801048D01*
X13585477Y-7801048D02*
X13566429Y-7772476D01*
X13566429Y-7772476D02*
X13556905Y-7762952D01*
D10*
X8745000Y-8113000D02*
X8745000Y-8213000D01*
X8695000Y-8163000D02*
X8795000Y-8163000D01*
D11*
X9147381Y-8255524D02*
X9033095Y-8255524D01*
X9090238Y-8255524D02*
X9090238Y-8055524D01*
X9090238Y-8055524D02*
X9071190Y-8084095D01*
X9071190Y-8084095D02*
X9052143Y-8103143D01*
X9052143Y-8103143D02*
X9033095Y-8112667D01*
X9233095Y-8236476D02*
X9242619Y-8246000D01*
X9242619Y-8246000D02*
X9233095Y-8255524D01*
X9233095Y-8255524D02*
X9223571Y-8246000D01*
X9223571Y-8246000D02*
X9233095Y-8236476D01*
X9233095Y-8236476D02*
X9233095Y-8255524D01*
X9366429Y-8055524D02*
X9385476Y-8055524D01*
X9385476Y-8055524D02*
X9404524Y-8065048D01*
X9404524Y-8065048D02*
X9414048Y-8074571D01*
X9414048Y-8074571D02*
X9423571Y-8093619D01*
X9423571Y-8093619D02*
X9433095Y-8131714D01*
X9433095Y-8131714D02*
X9433095Y-8179333D01*
X9433095Y-8179333D02*
X9423571Y-8217428D01*
X9423571Y-8217428D02*
X9414048Y-8236476D01*
X9414048Y-8236476D02*
X9404524Y-8246000D01*
X9404524Y-8246000D02*
X9385476Y-8255524D01*
X9385476Y-8255524D02*
X9366429Y-8255524D01*
X9366429Y-8255524D02*
X9347381Y-8246000D01*
X9347381Y-8246000D02*
X9337857Y-8236476D01*
X9337857Y-8236476D02*
X9328333Y-8217428D01*
X9328333Y-8217428D02*
X9318810Y-8179333D01*
X9318810Y-8179333D02*
X9318810Y-8131714D01*
X9318810Y-8131714D02*
X9328333Y-8093619D01*
X9328333Y-8093619D02*
X9337857Y-8074571D01*
X9337857Y-8074571D02*
X9347381Y-8065048D01*
X9347381Y-8065048D02*
X9366429Y-8055524D01*
X9556905Y-8055524D02*
X9575952Y-8055524D01*
X9575952Y-8055524D02*
X9595000Y-8065048D01*
X9595000Y-8065048D02*
X9604524Y-8074571D01*
X9604524Y-8074571D02*
X9614048Y-8093619D01*
X9614048Y-8093619D02*
X9623571Y-8131714D01*
X9623571Y-8131714D02*
X9623571Y-8179333D01*
X9623571Y-8179333D02*
X9614048Y-8217428D01*
X9614048Y-8217428D02*
X9604524Y-8236476D01*
X9604524Y-8236476D02*
X9595000Y-8246000D01*
X9595000Y-8246000D02*
X9575952Y-8255524D01*
X9575952Y-8255524D02*
X9556905Y-8255524D01*
X9556905Y-8255524D02*
X9537857Y-8246000D01*
X9537857Y-8246000D02*
X9528333Y-8236476D01*
X9528333Y-8236476D02*
X9518810Y-8217428D01*
X9518810Y-8217428D02*
X9509286Y-8179333D01*
X9509286Y-8179333D02*
X9509286Y-8131714D01*
X9509286Y-8131714D02*
X9518810Y-8093619D01*
X9518810Y-8093619D02*
X9528333Y-8074571D01*
X9528333Y-8074571D02*
X9537857Y-8065048D01*
X9537857Y-8065048D02*
X9556905Y-8055524D01*
X9747381Y-8055524D02*
X9766429Y-8055524D01*
X9766429Y-8055524D02*
X9785476Y-8065048D01*
X9785476Y-8065048D02*
X9795000Y-8074571D01*
X9795000Y-8074571D02*
X9804524Y-8093619D01*
X9804524Y-8093619D02*
X9814048Y-8131714D01*
X9814048Y-8131714D02*
X9814048Y-8179333D01*
X9814048Y-8179333D02*
X9804524Y-8217428D01*
X9804524Y-8217428D02*
X9795000Y-8236476D01*
X9795000Y-8236476D02*
X9785476Y-8246000D01*
X9785476Y-8246000D02*
X9766429Y-8255524D01*
X9766429Y-8255524D02*
X9747381Y-8255524D01*
X9747381Y-8255524D02*
X9728333Y-8246000D01*
X9728333Y-8246000D02*
X9718810Y-8236476D01*
X9718810Y-8236476D02*
X9709286Y-8217428D01*
X9709286Y-8217428D02*
X9699762Y-8179333D01*
X9699762Y-8179333D02*
X9699762Y-8131714D01*
X9699762Y-8131714D02*
X9709286Y-8093619D01*
X9709286Y-8093619D02*
X9718810Y-8074571D01*
X9718810Y-8074571D02*
X9728333Y-8065048D01*
X9728333Y-8065048D02*
X9747381Y-8055524D01*
X9899762Y-8255524D02*
X9899762Y-8122190D01*
X9899762Y-8141238D02*
X9909286Y-8131714D01*
X9909286Y-8131714D02*
X9928333Y-8122190D01*
X9928333Y-8122190D02*
X9956905Y-8122190D01*
X9956905Y-8122190D02*
X9975952Y-8131714D01*
X9975952Y-8131714D02*
X9985476Y-8150762D01*
X9985476Y-8150762D02*
X9985476Y-8255524D01*
X9985476Y-8150762D02*
X9995000Y-8131714D01*
X9995000Y-8131714D02*
X10014048Y-8122190D01*
X10014048Y-8122190D02*
X10042619Y-8122190D01*
X10042619Y-8122190D02*
X10061667Y-8131714D01*
X10061667Y-8131714D02*
X10071191Y-8150762D01*
X10071191Y-8150762D02*
X10071191Y-8255524D01*
X10166429Y-8255524D02*
X10166429Y-8122190D01*
X10166429Y-8141238D02*
X10175952Y-8131714D01*
X10175952Y-8131714D02*
X10195000Y-8122190D01*
X10195000Y-8122190D02*
X10223572Y-8122190D01*
X10223572Y-8122190D02*
X10242619Y-8131714D01*
X10242619Y-8131714D02*
X10252143Y-8150762D01*
X10252143Y-8150762D02*
X10252143Y-8255524D01*
X10252143Y-8150762D02*
X10261667Y-8131714D01*
X10261667Y-8131714D02*
X10280714Y-8122190D01*
X10280714Y-8122190D02*
X10309286Y-8122190D01*
X10309286Y-8122190D02*
X10328333Y-8131714D01*
X10328333Y-8131714D02*
X10337857Y-8150762D01*
X10337857Y-8150762D02*
X10337857Y-8255524D01*
X10728333Y-8046000D02*
X10556905Y-8303143D01*
X10985476Y-8055524D02*
X11004524Y-8055524D01*
X11004524Y-8055524D02*
X11023572Y-8065048D01*
X11023572Y-8065048D02*
X11033095Y-8074571D01*
X11033095Y-8074571D02*
X11042619Y-8093619D01*
X11042619Y-8093619D02*
X11052143Y-8131714D01*
X11052143Y-8131714D02*
X11052143Y-8179333D01*
X11052143Y-8179333D02*
X11042619Y-8217428D01*
X11042619Y-8217428D02*
X11033095Y-8236476D01*
X11033095Y-8236476D02*
X11023572Y-8246000D01*
X11023572Y-8246000D02*
X11004524Y-8255524D01*
X11004524Y-8255524D02*
X10985476Y-8255524D01*
X10985476Y-8255524D02*
X10966429Y-8246000D01*
X10966429Y-8246000D02*
X10956905Y-8236476D01*
X10956905Y-8236476D02*
X10947381Y-8217428D01*
X10947381Y-8217428D02*
X10937857Y-8179333D01*
X10937857Y-8179333D02*
X10937857Y-8131714D01*
X10937857Y-8131714D02*
X10947381Y-8093619D01*
X10947381Y-8093619D02*
X10956905Y-8074571D01*
X10956905Y-8074571D02*
X10966429Y-8065048D01*
X10966429Y-8065048D02*
X10985476Y-8055524D01*
X11137857Y-8236476D02*
X11147381Y-8246000D01*
X11147381Y-8246000D02*
X11137857Y-8255524D01*
X11137857Y-8255524D02*
X11128334Y-8246000D01*
X11128334Y-8246000D02*
X11137857Y-8236476D01*
X11137857Y-8236476D02*
X11137857Y-8255524D01*
X11271191Y-8055524D02*
X11290238Y-8055524D01*
X11290238Y-8055524D02*
X11309286Y-8065048D01*
X11309286Y-8065048D02*
X11318810Y-8074571D01*
X11318810Y-8074571D02*
X11328333Y-8093619D01*
X11328333Y-8093619D02*
X11337857Y-8131714D01*
X11337857Y-8131714D02*
X11337857Y-8179333D01*
X11337857Y-8179333D02*
X11328333Y-8217428D01*
X11328333Y-8217428D02*
X11318810Y-8236476D01*
X11318810Y-8236476D02*
X11309286Y-8246000D01*
X11309286Y-8246000D02*
X11290238Y-8255524D01*
X11290238Y-8255524D02*
X11271191Y-8255524D01*
X11271191Y-8255524D02*
X11252143Y-8246000D01*
X11252143Y-8246000D02*
X11242619Y-8236476D01*
X11242619Y-8236476D02*
X11233095Y-8217428D01*
X11233095Y-8217428D02*
X11223572Y-8179333D01*
X11223572Y-8179333D02*
X11223572Y-8131714D01*
X11223572Y-8131714D02*
X11233095Y-8093619D01*
X11233095Y-8093619D02*
X11242619Y-8074571D01*
X11242619Y-8074571D02*
X11252143Y-8065048D01*
X11252143Y-8065048D02*
X11271191Y-8055524D01*
X11404524Y-8055524D02*
X11528333Y-8055524D01*
X11528333Y-8055524D02*
X11461667Y-8131714D01*
X11461667Y-8131714D02*
X11490238Y-8131714D01*
X11490238Y-8131714D02*
X11509286Y-8141238D01*
X11509286Y-8141238D02*
X11518810Y-8150762D01*
X11518810Y-8150762D02*
X11528333Y-8169809D01*
X11528333Y-8169809D02*
X11528333Y-8217428D01*
X11528333Y-8217428D02*
X11518810Y-8236476D01*
X11518810Y-8236476D02*
X11509286Y-8246000D01*
X11509286Y-8246000D02*
X11490238Y-8255524D01*
X11490238Y-8255524D02*
X11433095Y-8255524D01*
X11433095Y-8255524D02*
X11414048Y-8246000D01*
X11414048Y-8246000D02*
X11404524Y-8236476D01*
X11623572Y-8255524D02*
X11661667Y-8255524D01*
X11661667Y-8255524D02*
X11680714Y-8246000D01*
X11680714Y-8246000D02*
X11690238Y-8236476D01*
X11690238Y-8236476D02*
X11709286Y-8207905D01*
X11709286Y-8207905D02*
X11718810Y-8169809D01*
X11718810Y-8169809D02*
X11718810Y-8093619D01*
X11718810Y-8093619D02*
X11709286Y-8074571D01*
X11709286Y-8074571D02*
X11699762Y-8065048D01*
X11699762Y-8065048D02*
X11680714Y-8055524D01*
X11680714Y-8055524D02*
X11642619Y-8055524D01*
X11642619Y-8055524D02*
X11623572Y-8065048D01*
X11623572Y-8065048D02*
X11614048Y-8074571D01*
X11614048Y-8074571D02*
X11604524Y-8093619D01*
X11604524Y-8093619D02*
X11604524Y-8141238D01*
X11604524Y-8141238D02*
X11614048Y-8160286D01*
X11614048Y-8160286D02*
X11623572Y-8169809D01*
X11623572Y-8169809D02*
X11642619Y-8179333D01*
X11642619Y-8179333D02*
X11680714Y-8179333D01*
X11680714Y-8179333D02*
X11699762Y-8169809D01*
X11699762Y-8169809D02*
X11709286Y-8160286D01*
X11709286Y-8160286D02*
X11718810Y-8141238D01*
X11890238Y-8122190D02*
X11890238Y-8255524D01*
X11842619Y-8046000D02*
X11795000Y-8188857D01*
X11795000Y-8188857D02*
X11918810Y-8188857D01*
X11985476Y-8055524D02*
X11985476Y-8093619D01*
X12061667Y-8055524D02*
X12061667Y-8093619D01*
X12356905Y-8331714D02*
X12347381Y-8322190D01*
X12347381Y-8322190D02*
X12328334Y-8293619D01*
X12328334Y-8293619D02*
X12318810Y-8274571D01*
X12318810Y-8274571D02*
X12309286Y-8246000D01*
X12309286Y-8246000D02*
X12299762Y-8198381D01*
X12299762Y-8198381D02*
X12299762Y-8160286D01*
X12299762Y-8160286D02*
X12309286Y-8112667D01*
X12309286Y-8112667D02*
X12318810Y-8084095D01*
X12318810Y-8084095D02*
X12328334Y-8065048D01*
X12328334Y-8065048D02*
X12347381Y-8036476D01*
X12347381Y-8036476D02*
X12356905Y-8026952D01*
X12423572Y-8074571D02*
X12433095Y-8065048D01*
X12433095Y-8065048D02*
X12452143Y-8055524D01*
X12452143Y-8055524D02*
X12499762Y-8055524D01*
X12499762Y-8055524D02*
X12518810Y-8065048D01*
X12518810Y-8065048D02*
X12528334Y-8074571D01*
X12528334Y-8074571D02*
X12537857Y-8093619D01*
X12537857Y-8093619D02*
X12537857Y-8112667D01*
X12537857Y-8112667D02*
X12528334Y-8141238D01*
X12528334Y-8141238D02*
X12414048Y-8255524D01*
X12414048Y-8255524D02*
X12537857Y-8255524D01*
X12709286Y-8122190D02*
X12709286Y-8255524D01*
X12661667Y-8046000D02*
X12614048Y-8188857D01*
X12614048Y-8188857D02*
X12737857Y-8188857D01*
X12966429Y-8255524D02*
X12966429Y-8055524D01*
X13052143Y-8255524D02*
X13052143Y-8150762D01*
X13052143Y-8150762D02*
X13042619Y-8131714D01*
X13042619Y-8131714D02*
X13023572Y-8122190D01*
X13023572Y-8122190D02*
X12995000Y-8122190D01*
X12995000Y-8122190D02*
X12975953Y-8131714D01*
X12975953Y-8131714D02*
X12966429Y-8141238D01*
X13175953Y-8255524D02*
X13156905Y-8246000D01*
X13156905Y-8246000D02*
X13147381Y-8236476D01*
X13147381Y-8236476D02*
X13137857Y-8217428D01*
X13137857Y-8217428D02*
X13137857Y-8160286D01*
X13137857Y-8160286D02*
X13147381Y-8141238D01*
X13147381Y-8141238D02*
X13156905Y-8131714D01*
X13156905Y-8131714D02*
X13175953Y-8122190D01*
X13175953Y-8122190D02*
X13204524Y-8122190D01*
X13204524Y-8122190D02*
X13223572Y-8131714D01*
X13223572Y-8131714D02*
X13233096Y-8141238D01*
X13233096Y-8141238D02*
X13242619Y-8160286D01*
X13242619Y-8160286D02*
X13242619Y-8217428D01*
X13242619Y-8217428D02*
X13233096Y-8236476D01*
X13233096Y-8236476D02*
X13223572Y-8246000D01*
X13223572Y-8246000D02*
X13204524Y-8255524D01*
X13204524Y-8255524D02*
X13175953Y-8255524D01*
X13356905Y-8255524D02*
X13337857Y-8246000D01*
X13337857Y-8246000D02*
X13328334Y-8226952D01*
X13328334Y-8226952D02*
X13328334Y-8055524D01*
X13509286Y-8246000D02*
X13490238Y-8255524D01*
X13490238Y-8255524D02*
X13452143Y-8255524D01*
X13452143Y-8255524D02*
X13433096Y-8246000D01*
X13433096Y-8246000D02*
X13423572Y-8226952D01*
X13423572Y-8226952D02*
X13423572Y-8150762D01*
X13423572Y-8150762D02*
X13433096Y-8131714D01*
X13433096Y-8131714D02*
X13452143Y-8122190D01*
X13452143Y-8122190D02*
X13490238Y-8122190D01*
X13490238Y-8122190D02*
X13509286Y-8131714D01*
X13509286Y-8131714D02*
X13518810Y-8150762D01*
X13518810Y-8150762D02*
X13518810Y-8169809D01*
X13518810Y-8169809D02*
X13423572Y-8188857D01*
X13595000Y-8246000D02*
X13614048Y-8255524D01*
X13614048Y-8255524D02*
X13652143Y-8255524D01*
X13652143Y-8255524D02*
X13671191Y-8246000D01*
X13671191Y-8246000D02*
X13680715Y-8226952D01*
X13680715Y-8226952D02*
X13680715Y-8217428D01*
X13680715Y-8217428D02*
X13671191Y-8198381D01*
X13671191Y-8198381D02*
X13652143Y-8188857D01*
X13652143Y-8188857D02*
X13623572Y-8188857D01*
X13623572Y-8188857D02*
X13604524Y-8179333D01*
X13604524Y-8179333D02*
X13595000Y-8160286D01*
X13595000Y-8160286D02*
X13595000Y-8150762D01*
X13595000Y-8150762D02*
X13604524Y-8131714D01*
X13604524Y-8131714D02*
X13623572Y-8122190D01*
X13623572Y-8122190D02*
X13652143Y-8122190D01*
X13652143Y-8122190D02*
X13671191Y-8131714D01*
X13747381Y-8331714D02*
X13756905Y-8322190D01*
X13756905Y-8322190D02*
X13775953Y-8293619D01*
X13775953Y-8293619D02*
X13785477Y-8274571D01*
X13785477Y-8274571D02*
X13795000Y-8246000D01*
X13795000Y-8246000D02*
X13804524Y-8198381D01*
X13804524Y-8198381D02*
X13804524Y-8160286D01*
X13804524Y-8160286D02*
X13795000Y-8112667D01*
X13795000Y-8112667D02*
X13785477Y-8084095D01*
X13785477Y-8084095D02*
X13775953Y-8065048D01*
X13775953Y-8065048D02*
X13756905Y-8036476D01*
X13756905Y-8036476D02*
X13747381Y-8026952D01*
M02*
