G04 #@! TF.GenerationSoftware,KiCad,Pcbnew,7.0.1*
G04 #@! TF.CreationDate,2023-04-11T16:46:25+02:00*
G04 #@! TF.ProjectId,AFE_03,4146455f-3033-42e6-9b69-6361645f7063,rev?*
G04 #@! TF.SameCoordinates,Original*
G04 #@! TF.FileFunction,Legend,Bot*
G04 #@! TF.FilePolarity,Positive*
%FSLAX46Y46*%
G04 Gerber Fmt 4.6, Leading zero omitted, Abs format (unit mm)*
G04 Created by KiCad (PCBNEW 7.0.1) date 2023-04-11 16:46:25*
%MOMM*%
%LPD*%
G01*
G04 APERTURE LIST*
G04 Aperture macros list*
%AMRoundRect*
0 Rectangle with rounded corners*
0 $1 Rounding radius*
0 $2 $3 $4 $5 $6 $7 $8 $9 X,Y pos of 4 corners*
0 Add a 4 corners polygon primitive as box body*
4,1,4,$2,$3,$4,$5,$6,$7,$8,$9,$2,$3,0*
0 Add four circle primitives for the rounded corners*
1,1,$1+$1,$2,$3*
1,1,$1+$1,$4,$5*
1,1,$1+$1,$6,$7*
1,1,$1+$1,$8,$9*
0 Add four rect primitives between the rounded corners*
20,1,$1+$1,$2,$3,$4,$5,0*
20,1,$1+$1,$4,$5,$6,$7,0*
20,1,$1+$1,$6,$7,$8,$9,0*
20,1,$1+$1,$8,$9,$2,$3,0*%
%AMFreePoly0*
4,1,19,0.550000,-0.750000,0.000000,-0.750000,0.000000,-0.744911,-0.071157,-0.744911,-0.207708,-0.704816,-0.327430,-0.627875,-0.420627,-0.520320,-0.479746,-0.390866,-0.500000,-0.250000,-0.500000,0.250000,-0.479746,0.390866,-0.420627,0.520320,-0.327430,0.627875,-0.207708,0.704816,-0.071157,0.744911,0.000000,0.744911,0.000000,0.750000,0.550000,0.750000,0.550000,-0.750000,0.550000,-0.750000,
$1*%
%AMFreePoly1*
4,1,19,0.000000,0.744911,0.071157,0.744911,0.207708,0.704816,0.327430,0.627875,0.420627,0.520320,0.479746,0.390866,0.500000,0.250000,0.500000,-0.250000,0.479746,-0.390866,0.420627,-0.520320,0.327430,-0.627875,0.207708,-0.704816,0.071157,-0.744911,0.000000,-0.744911,0.000000,-0.750000,-0.550000,-0.750000,-0.550000,0.750000,0.000000,0.750000,0.000000,0.744911,0.000000,0.744911,
$1*%
G04 Aperture macros list end*
%ADD10C,0.250000*%
%ADD11C,0.150000*%
%ADD12C,0.125000*%
%ADD13C,0.120000*%
%ADD14RoundRect,0.250000X-0.600000X-0.725000X0.600000X-0.725000X0.600000X0.725000X-0.600000X0.725000X0*%
%ADD15O,1.700000X1.950000*%
%ADD16FreePoly0,180.000000*%
%ADD17R,1.000000X1.500000*%
%ADD18FreePoly1,180.000000*%
%ADD19R,1.700000X1.700000*%
%ADD20O,1.700000X1.700000*%
G04 APERTURE END LIST*
D10*
X106414285Y-36587857D02*
X105700000Y-36587857D01*
X106557142Y-37016428D02*
X106057142Y-35516428D01*
X106057142Y-35516428D02*
X105557142Y-37016428D01*
X104557143Y-36230714D02*
X105057143Y-36230714D01*
X105057143Y-37016428D02*
X105057143Y-35516428D01*
X105057143Y-35516428D02*
X104342857Y-35516428D01*
X103771429Y-36230714D02*
X103271429Y-36230714D01*
X103057143Y-37016428D02*
X103771429Y-37016428D01*
X103771429Y-37016428D02*
X103771429Y-35516428D01*
X103771429Y-35516428D02*
X103057143Y-35516428D01*
X101628571Y-37016428D02*
X102485714Y-37016428D01*
X102057143Y-37016428D02*
X102057143Y-35516428D01*
X102057143Y-35516428D02*
X102200000Y-35730714D01*
X102200000Y-35730714D02*
X102342857Y-35873571D01*
X102342857Y-35873571D02*
X102485714Y-35945000D01*
X101057143Y-35659285D02*
X100985715Y-35587857D01*
X100985715Y-35587857D02*
X100842858Y-35516428D01*
X100842858Y-35516428D02*
X100485715Y-35516428D01*
X100485715Y-35516428D02*
X100342858Y-35587857D01*
X100342858Y-35587857D02*
X100271429Y-35659285D01*
X100271429Y-35659285D02*
X100200000Y-35802142D01*
X100200000Y-35802142D02*
X100200000Y-35945000D01*
X100200000Y-35945000D02*
X100271429Y-36159285D01*
X100271429Y-36159285D02*
X101128572Y-37016428D01*
X101128572Y-37016428D02*
X100200000Y-37016428D01*
X99485715Y-37016428D02*
X99200001Y-37016428D01*
X99200001Y-37016428D02*
X99057144Y-36945000D01*
X99057144Y-36945000D02*
X98985715Y-36873571D01*
X98985715Y-36873571D02*
X98842858Y-36659285D01*
X98842858Y-36659285D02*
X98771429Y-36373571D01*
X98771429Y-36373571D02*
X98771429Y-35802142D01*
X98771429Y-35802142D02*
X98842858Y-35659285D01*
X98842858Y-35659285D02*
X98914287Y-35587857D01*
X98914287Y-35587857D02*
X99057144Y-35516428D01*
X99057144Y-35516428D02*
X99342858Y-35516428D01*
X99342858Y-35516428D02*
X99485715Y-35587857D01*
X99485715Y-35587857D02*
X99557144Y-35659285D01*
X99557144Y-35659285D02*
X99628572Y-35802142D01*
X99628572Y-35802142D02*
X99628572Y-36159285D01*
X99628572Y-36159285D02*
X99557144Y-36302142D01*
X99557144Y-36302142D02*
X99485715Y-36373571D01*
X99485715Y-36373571D02*
X99342858Y-36445000D01*
X99342858Y-36445000D02*
X99057144Y-36445000D01*
X99057144Y-36445000D02*
X98914287Y-36373571D01*
X98914287Y-36373571D02*
X98842858Y-36302142D01*
X98842858Y-36302142D02*
X98771429Y-36159285D01*
X98271430Y-35516428D02*
X97342858Y-35516428D01*
X97342858Y-35516428D02*
X97842858Y-36087857D01*
X97842858Y-36087857D02*
X97628573Y-36087857D01*
X97628573Y-36087857D02*
X97485716Y-36159285D01*
X97485716Y-36159285D02*
X97414287Y-36230714D01*
X97414287Y-36230714D02*
X97342858Y-36373571D01*
X97342858Y-36373571D02*
X97342858Y-36730714D01*
X97342858Y-36730714D02*
X97414287Y-36873571D01*
X97414287Y-36873571D02*
X97485716Y-36945000D01*
X97485716Y-36945000D02*
X97628573Y-37016428D01*
X97628573Y-37016428D02*
X98057144Y-37016428D01*
X98057144Y-37016428D02*
X98200001Y-36945000D01*
X98200001Y-36945000D02*
X98271430Y-36873571D01*
X95057145Y-36230714D02*
X94842859Y-36302142D01*
X94842859Y-36302142D02*
X94771430Y-36373571D01*
X94771430Y-36373571D02*
X94700002Y-36516428D01*
X94700002Y-36516428D02*
X94700002Y-36730714D01*
X94700002Y-36730714D02*
X94771430Y-36873571D01*
X94771430Y-36873571D02*
X94842859Y-36945000D01*
X94842859Y-36945000D02*
X94985716Y-37016428D01*
X94985716Y-37016428D02*
X95557145Y-37016428D01*
X95557145Y-37016428D02*
X95557145Y-35516428D01*
X95557145Y-35516428D02*
X95057145Y-35516428D01*
X95057145Y-35516428D02*
X94914288Y-35587857D01*
X94914288Y-35587857D02*
X94842859Y-35659285D01*
X94842859Y-35659285D02*
X94771430Y-35802142D01*
X94771430Y-35802142D02*
X94771430Y-35945000D01*
X94771430Y-35945000D02*
X94842859Y-36087857D01*
X94842859Y-36087857D02*
X94914288Y-36159285D01*
X94914288Y-36159285D02*
X95057145Y-36230714D01*
X95057145Y-36230714D02*
X95557145Y-36230714D01*
X93771430Y-35516428D02*
X93485716Y-35516428D01*
X93485716Y-35516428D02*
X93342859Y-35587857D01*
X93342859Y-35587857D02*
X93200002Y-35730714D01*
X93200002Y-35730714D02*
X93128573Y-36016428D01*
X93128573Y-36016428D02*
X93128573Y-36516428D01*
X93128573Y-36516428D02*
X93200002Y-36802142D01*
X93200002Y-36802142D02*
X93342859Y-36945000D01*
X93342859Y-36945000D02*
X93485716Y-37016428D01*
X93485716Y-37016428D02*
X93771430Y-37016428D01*
X93771430Y-37016428D02*
X93914288Y-36945000D01*
X93914288Y-36945000D02*
X94057145Y-36802142D01*
X94057145Y-36802142D02*
X94128573Y-36516428D01*
X94128573Y-36516428D02*
X94128573Y-36016428D01*
X94128573Y-36016428D02*
X94057145Y-35730714D01*
X94057145Y-35730714D02*
X93914288Y-35587857D01*
X93914288Y-35587857D02*
X93771430Y-35516428D01*
D11*
X111085714Y-68302095D02*
X111085714Y-68873523D01*
X111085714Y-68873523D02*
X111114285Y-68987809D01*
X111114285Y-68987809D02*
X111171428Y-69064000D01*
X111171428Y-69064000D02*
X111257142Y-69102095D01*
X111257142Y-69102095D02*
X111314285Y-69102095D01*
X110514285Y-69102095D02*
X110799999Y-69102095D01*
X110799999Y-69102095D02*
X110799999Y-68302095D01*
X109971428Y-69025904D02*
X110000000Y-69064000D01*
X110000000Y-69064000D02*
X110085714Y-69102095D01*
X110085714Y-69102095D02*
X110142857Y-69102095D01*
X110142857Y-69102095D02*
X110228571Y-69064000D01*
X110228571Y-69064000D02*
X110285714Y-68987809D01*
X110285714Y-68987809D02*
X110314285Y-68911619D01*
X110314285Y-68911619D02*
X110342857Y-68759238D01*
X110342857Y-68759238D02*
X110342857Y-68644952D01*
X110342857Y-68644952D02*
X110314285Y-68492571D01*
X110314285Y-68492571D02*
X110285714Y-68416380D01*
X110285714Y-68416380D02*
X110228571Y-68340190D01*
X110228571Y-68340190D02*
X110142857Y-68302095D01*
X110142857Y-68302095D02*
X110085714Y-68302095D01*
X110085714Y-68302095D02*
X110000000Y-68340190D01*
X110000000Y-68340190D02*
X109971428Y-68378285D01*
X109542857Y-68302095D02*
X109542857Y-68873523D01*
X109542857Y-68873523D02*
X109571428Y-68987809D01*
X109571428Y-68987809D02*
X109628571Y-69064000D01*
X109628571Y-69064000D02*
X109714285Y-69102095D01*
X109714285Y-69102095D02*
X109771428Y-69102095D01*
X108971428Y-69102095D02*
X109257142Y-69102095D01*
X109257142Y-69102095D02*
X109257142Y-68302095D01*
X108428571Y-69025904D02*
X108457143Y-69064000D01*
X108457143Y-69064000D02*
X108542857Y-69102095D01*
X108542857Y-69102095D02*
X108600000Y-69102095D01*
X108600000Y-69102095D02*
X108685714Y-69064000D01*
X108685714Y-69064000D02*
X108742857Y-68987809D01*
X108742857Y-68987809D02*
X108771428Y-68911619D01*
X108771428Y-68911619D02*
X108800000Y-68759238D01*
X108800000Y-68759238D02*
X108800000Y-68644952D01*
X108800000Y-68644952D02*
X108771428Y-68492571D01*
X108771428Y-68492571D02*
X108742857Y-68416380D01*
X108742857Y-68416380D02*
X108685714Y-68340190D01*
X108685714Y-68340190D02*
X108600000Y-68302095D01*
X108600000Y-68302095D02*
X108542857Y-68302095D01*
X108542857Y-68302095D02*
X108457143Y-68340190D01*
X108457143Y-68340190D02*
X108428571Y-68378285D01*
X108000000Y-68302095D02*
X108000000Y-68873523D01*
X108000000Y-68873523D02*
X108028571Y-68987809D01*
X108028571Y-68987809D02*
X108085714Y-69064000D01*
X108085714Y-69064000D02*
X108171428Y-69102095D01*
X108171428Y-69102095D02*
X108228571Y-69102095D01*
X107428571Y-69102095D02*
X107714285Y-69102095D01*
X107714285Y-69102095D02*
X107714285Y-68302095D01*
X106885714Y-69025904D02*
X106914286Y-69064000D01*
X106914286Y-69064000D02*
X107000000Y-69102095D01*
X107000000Y-69102095D02*
X107057143Y-69102095D01*
X107057143Y-69102095D02*
X107142857Y-69064000D01*
X107142857Y-69064000D02*
X107200000Y-68987809D01*
X107200000Y-68987809D02*
X107228571Y-68911619D01*
X107228571Y-68911619D02*
X107257143Y-68759238D01*
X107257143Y-68759238D02*
X107257143Y-68644952D01*
X107257143Y-68644952D02*
X107228571Y-68492571D01*
X107228571Y-68492571D02*
X107200000Y-68416380D01*
X107200000Y-68416380D02*
X107142857Y-68340190D01*
X107142857Y-68340190D02*
X107057143Y-68302095D01*
X107057143Y-68302095D02*
X107000000Y-68302095D01*
X107000000Y-68302095D02*
X106914286Y-68340190D01*
X106914286Y-68340190D02*
X106885714Y-68378285D01*
X106457143Y-68302095D02*
X106457143Y-68873523D01*
X106457143Y-68873523D02*
X106485714Y-68987809D01*
X106485714Y-68987809D02*
X106542857Y-69064000D01*
X106542857Y-69064000D02*
X106628571Y-69102095D01*
X106628571Y-69102095D02*
X106685714Y-69102095D01*
X105885714Y-69102095D02*
X106171428Y-69102095D01*
X106171428Y-69102095D02*
X106171428Y-68302095D01*
X105342857Y-69025904D02*
X105371429Y-69064000D01*
X105371429Y-69064000D02*
X105457143Y-69102095D01*
X105457143Y-69102095D02*
X105514286Y-69102095D01*
X105514286Y-69102095D02*
X105600000Y-69064000D01*
X105600000Y-69064000D02*
X105657143Y-68987809D01*
X105657143Y-68987809D02*
X105685714Y-68911619D01*
X105685714Y-68911619D02*
X105714286Y-68759238D01*
X105714286Y-68759238D02*
X105714286Y-68644952D01*
X105714286Y-68644952D02*
X105685714Y-68492571D01*
X105685714Y-68492571D02*
X105657143Y-68416380D01*
X105657143Y-68416380D02*
X105600000Y-68340190D01*
X105600000Y-68340190D02*
X105514286Y-68302095D01*
X105514286Y-68302095D02*
X105457143Y-68302095D01*
X105457143Y-68302095D02*
X105371429Y-68340190D01*
X105371429Y-68340190D02*
X105342857Y-68378285D01*
D12*
X98616666Y-56520095D02*
X98616666Y-57091523D01*
X98616666Y-57091523D02*
X98640475Y-57205809D01*
X98640475Y-57205809D02*
X98688094Y-57282000D01*
X98688094Y-57282000D02*
X98759523Y-57320095D01*
X98759523Y-57320095D02*
X98807142Y-57320095D01*
X98378571Y-57320095D02*
X98378571Y-56520095D01*
X98378571Y-56520095D02*
X98188095Y-56520095D01*
X98188095Y-56520095D02*
X98140476Y-56558190D01*
X98140476Y-56558190D02*
X98116666Y-56596285D01*
X98116666Y-56596285D02*
X98092857Y-56672476D01*
X98092857Y-56672476D02*
X98092857Y-56786761D01*
X98092857Y-56786761D02*
X98116666Y-56862952D01*
X98116666Y-56862952D02*
X98140476Y-56901047D01*
X98140476Y-56901047D02*
X98188095Y-56939142D01*
X98188095Y-56939142D02*
X98378571Y-56939142D01*
X97616666Y-57320095D02*
X97902380Y-57320095D01*
X97759523Y-57320095D02*
X97759523Y-56520095D01*
X97759523Y-56520095D02*
X97807142Y-56634380D01*
X97807142Y-56634380D02*
X97854761Y-56710571D01*
X97854761Y-56710571D02*
X97902380Y-56748666D01*
D11*
X110633333Y-66062619D02*
X110633333Y-66776904D01*
X110633333Y-66776904D02*
X110680952Y-66919761D01*
X110680952Y-66919761D02*
X110776190Y-67015000D01*
X110776190Y-67015000D02*
X110919047Y-67062619D01*
X110919047Y-67062619D02*
X111014285Y-67062619D01*
X110204761Y-66157857D02*
X110157142Y-66110238D01*
X110157142Y-66110238D02*
X110061904Y-66062619D01*
X110061904Y-66062619D02*
X109823809Y-66062619D01*
X109823809Y-66062619D02*
X109728571Y-66110238D01*
X109728571Y-66110238D02*
X109680952Y-66157857D01*
X109680952Y-66157857D02*
X109633333Y-66253095D01*
X109633333Y-66253095D02*
X109633333Y-66348333D01*
X109633333Y-66348333D02*
X109680952Y-66491190D01*
X109680952Y-66491190D02*
X110252380Y-67062619D01*
X110252380Y-67062619D02*
X109633333Y-67062619D01*
X90433333Y-66062619D02*
X90433333Y-66776904D01*
X90433333Y-66776904D02*
X90480952Y-66919761D01*
X90480952Y-66919761D02*
X90576190Y-67015000D01*
X90576190Y-67015000D02*
X90719047Y-67062619D01*
X90719047Y-67062619D02*
X90814285Y-67062619D01*
X90052380Y-66062619D02*
X89433333Y-66062619D01*
X89433333Y-66062619D02*
X89766666Y-66443571D01*
X89766666Y-66443571D02*
X89623809Y-66443571D01*
X89623809Y-66443571D02*
X89528571Y-66491190D01*
X89528571Y-66491190D02*
X89480952Y-66538809D01*
X89480952Y-66538809D02*
X89433333Y-66634047D01*
X89433333Y-66634047D02*
X89433333Y-66872142D01*
X89433333Y-66872142D02*
X89480952Y-66967380D01*
X89480952Y-66967380D02*
X89528571Y-67015000D01*
X89528571Y-67015000D02*
X89623809Y-67062619D01*
X89623809Y-67062619D02*
X89909523Y-67062619D01*
X89909523Y-67062619D02*
X90004761Y-67015000D01*
X90004761Y-67015000D02*
X90052380Y-66967380D01*
D13*
X101150000Y-55400000D02*
X101150000Y-54800000D01*
X100600000Y-56600000D02*
X100000000Y-56600000D01*
X100500000Y-54100000D02*
X97700000Y-54100000D01*
X100300000Y-56300000D02*
X100600000Y-56600000D01*
X100300000Y-56300000D02*
X100000000Y-56600000D01*
X97700000Y-56100000D02*
X100500000Y-56100000D01*
X97050000Y-54800000D02*
X97050000Y-55400000D01*
X100450000Y-56100000D02*
G75*
G03*
X101150000Y-55400000I1J699999D01*
G01*
X101150000Y-54800000D02*
G75*
G03*
X100450000Y-54100000I-699999J1D01*
G01*
X97050000Y-55400000D02*
G75*
G03*
X97750000Y-56100000I700000J0D01*
G01*
X97750000Y-54100000D02*
G75*
G03*
X97050000Y-54800000I0J-700000D01*
G01*
X108970000Y-35170000D02*
X111630000Y-35170000D01*
X108970000Y-63170000D02*
X108970000Y-35170000D01*
X108970000Y-63170000D02*
X111630000Y-63170000D01*
X108970000Y-64440000D02*
X108970000Y-65770000D01*
X108970000Y-65770000D02*
X110300000Y-65770000D01*
X111630000Y-63170000D02*
X111630000Y-35170000D01*
X91330000Y-65770000D02*
X88670000Y-65770000D01*
X91330000Y-37770000D02*
X91330000Y-65770000D01*
X91330000Y-37770000D02*
X88670000Y-37770000D01*
X91330000Y-36500000D02*
X91330000Y-35170000D01*
X91330000Y-35170000D02*
X90000000Y-35170000D01*
X88670000Y-37770000D02*
X88670000Y-65770000D01*
%LPC*%
D14*
X100600000Y-65800000D03*
D15*
X103100000Y-65800000D03*
X105600000Y-65800000D03*
D16*
X100400000Y-55100000D03*
D17*
X99100000Y-55100000D03*
D18*
X97800000Y-55100000D03*
D19*
X110300000Y-64440000D03*
D20*
X110300000Y-61900000D03*
X110300000Y-59360000D03*
X110300000Y-56820000D03*
X110300000Y-54280000D03*
X110300000Y-51740000D03*
X110300000Y-49200000D03*
X110300000Y-46660000D03*
X110300000Y-44120000D03*
X110300000Y-41580000D03*
X110300000Y-39040000D03*
X110300000Y-36500000D03*
D19*
X90000000Y-36500000D03*
D20*
X90000000Y-39040000D03*
X90000000Y-41580000D03*
X90000000Y-44120000D03*
X90000000Y-46660000D03*
X90000000Y-49200000D03*
X90000000Y-51740000D03*
X90000000Y-54280000D03*
X90000000Y-56820000D03*
X90000000Y-59360000D03*
X90000000Y-61900000D03*
X90000000Y-64440000D03*
M02*
