G04 #@! TF.GenerationSoftware,KiCad,Pcbnew,7.0.1*
G04 #@! TF.CreationDate,2023-04-11T16:46:25+02:00*
G04 #@! TF.ProjectId,AFE_03,4146455f-3033-42e6-9b69-6361645f7063,rev?*
G04 #@! TF.SameCoordinates,Original*
G04 #@! TF.FileFunction,Soldermask,Top*
G04 #@! TF.FilePolarity,Negative*
%FSLAX46Y46*%
G04 Gerber Fmt 4.6, Leading zero omitted, Abs format (unit mm)*
G04 Created by KiCad (PCBNEW 7.0.1) date 2023-04-11 16:46:25*
%MOMM*%
%LPD*%
G01*
G04 APERTURE LIST*
G04 Aperture macros list*
%AMRoundRect*
0 Rectangle with rounded corners*
0 $1 Rounding radius*
0 $2 $3 $4 $5 $6 $7 $8 $9 X,Y pos of 4 corners*
0 Add a 4 corners polygon primitive as box body*
4,1,4,$2,$3,$4,$5,$6,$7,$8,$9,$2,$3,0*
0 Add four circle primitives for the rounded corners*
1,1,$1+$1,$2,$3*
1,1,$1+$1,$4,$5*
1,1,$1+$1,$6,$7*
1,1,$1+$1,$8,$9*
0 Add four rect primitives between the rounded corners*
20,1,$1+$1,$2,$3,$4,$5,0*
20,1,$1+$1,$4,$5,$6,$7,0*
20,1,$1+$1,$6,$7,$8,$9,0*
20,1,$1+$1,$8,$9,$2,$3,0*%
G04 Aperture macros list end*
%ADD10RoundRect,0.008100X-0.421900X-0.126900X0.421900X-0.126900X0.421900X0.126900X-0.421900X0.126900X0*%
%ADD11RoundRect,0.008100X0.126900X-0.421900X0.126900X0.421900X-0.126900X0.421900X-0.126900X-0.421900X0*%
%ADD12R,3.000000X3.000000*%
%ADD13R,1.000000X2.900000*%
%ADD14RoundRect,0.250000X0.475000X-0.250000X0.475000X0.250000X-0.475000X0.250000X-0.475000X-0.250000X0*%
%ADD15R,1.300000X1.550000*%
%ADD16RoundRect,0.135000X-0.135000X-0.185000X0.135000X-0.185000X0.135000X0.185000X-0.135000X0.185000X0*%
%ADD17RoundRect,0.225000X-0.225000X-0.250000X0.225000X-0.250000X0.225000X0.250000X-0.225000X0.250000X0*%
%ADD18RoundRect,0.250000X-0.600000X-0.725000X0.600000X-0.725000X0.600000X0.725000X-0.600000X0.725000X0*%
%ADD19O,1.700000X1.950000*%
%ADD20RoundRect,0.250000X0.325000X0.650000X-0.325000X0.650000X-0.325000X-0.650000X0.325000X-0.650000X0*%
%ADD21RoundRect,0.140000X0.140000X0.170000X-0.140000X0.170000X-0.140000X-0.170000X0.140000X-0.170000X0*%
%ADD22RoundRect,0.140000X-0.140000X-0.170000X0.140000X-0.170000X0.140000X0.170000X-0.140000X0.170000X0*%
%ADD23R,4.500000X2.000000*%
%ADD24RoundRect,0.225000X0.225000X0.250000X-0.225000X0.250000X-0.225000X-0.250000X0.225000X-0.250000X0*%
%ADD25R,0.400000X0.700000*%
%ADD26RoundRect,0.250000X0.250000X0.475000X-0.250000X0.475000X-0.250000X-0.475000X0.250000X-0.475000X0*%
%ADD27RoundRect,0.135000X0.135000X0.185000X-0.135000X0.185000X-0.135000X-0.185000X0.135000X-0.185000X0*%
%ADD28RoundRect,0.140000X0.170000X-0.140000X0.170000X0.140000X-0.170000X0.140000X-0.170000X-0.140000X0*%
%ADD29RoundRect,0.155000X0.212500X0.155000X-0.212500X0.155000X-0.212500X-0.155000X0.212500X-0.155000X0*%
%ADD30RoundRect,0.135000X0.185000X-0.135000X0.185000X0.135000X-0.185000X0.135000X-0.185000X-0.135000X0*%
%ADD31R,1.700000X1.700000*%
%ADD32O,1.700000X1.700000*%
G04 APERTURE END LIST*
D10*
X96165000Y-45500000D03*
X96165000Y-46000000D03*
X96165000Y-46500000D03*
X96165000Y-47000000D03*
X96165000Y-47500000D03*
X96165000Y-48000000D03*
X96165000Y-48500000D03*
D11*
X97100000Y-49435000D03*
X97600000Y-49435000D03*
X98100000Y-49435000D03*
X98600000Y-49435000D03*
X99100000Y-49435000D03*
X99600000Y-49435000D03*
X100100000Y-49435000D03*
D10*
X101035000Y-48500000D03*
X101035000Y-48000000D03*
X101035000Y-47500000D03*
X101035000Y-47000000D03*
X101035000Y-46500000D03*
X101035000Y-46000000D03*
X101035000Y-45500000D03*
D11*
X100100000Y-44565000D03*
X99600000Y-44565000D03*
X99100000Y-44565000D03*
X98600000Y-44565000D03*
X98100000Y-44565000D03*
X97600000Y-44565000D03*
X97100000Y-44565000D03*
D12*
X98600000Y-47000000D03*
D13*
X94485000Y-63850000D03*
X96515000Y-63850000D03*
D14*
X98100000Y-61050000D03*
X98100000Y-59150000D03*
D15*
X107050000Y-53875000D03*
X107050000Y-61825000D03*
X102550000Y-53875000D03*
X102550000Y-61825000D03*
D16*
X92730000Y-49500000D03*
X93750000Y-49500000D03*
D17*
X97025000Y-51700000D03*
X98575000Y-51700000D03*
D18*
X100600000Y-65800000D03*
D19*
X103100000Y-65800000D03*
X105600000Y-65800000D03*
D16*
X95990000Y-54800000D03*
X97010000Y-54800000D03*
X93760000Y-45750000D03*
X92740000Y-45750000D03*
D20*
X95475000Y-68200000D03*
X92525000Y-68200000D03*
D16*
X92740000Y-48250000D03*
X93760000Y-48250000D03*
X101495000Y-52000000D03*
X102515000Y-52000000D03*
X92740000Y-47000000D03*
X93760000Y-47000000D03*
D21*
X95180000Y-66500000D03*
X94220000Y-66500000D03*
D16*
X105590000Y-44600000D03*
X106610000Y-44600000D03*
D22*
X97120000Y-41100000D03*
X98080000Y-41100000D03*
D23*
X104250000Y-37000000D03*
X95750000Y-37000000D03*
D24*
X99375000Y-53300000D03*
X97825000Y-53300000D03*
D25*
X96650000Y-59550000D03*
X96000000Y-59550000D03*
X95350000Y-59550000D03*
X95350000Y-61250000D03*
X96000000Y-61250000D03*
X96650000Y-61250000D03*
D16*
X105615000Y-43500000D03*
X106635000Y-43500000D03*
D21*
X99980000Y-41100000D03*
X99020000Y-41100000D03*
D16*
X105590000Y-46800000D03*
X106610000Y-46800000D03*
D26*
X93950000Y-60900000D03*
X92050000Y-60900000D03*
D27*
X106635000Y-49000000D03*
X105615000Y-49000000D03*
D28*
X101000000Y-42380000D03*
X101000000Y-41420000D03*
D21*
X96530000Y-42200000D03*
X95570000Y-42200000D03*
X96530000Y-43300000D03*
X95570000Y-43300000D03*
D16*
X92740000Y-44600000D03*
X93760000Y-44600000D03*
X96510000Y-57200000D03*
X95490000Y-57200000D03*
D29*
X94767500Y-41100000D03*
X93632500Y-41100000D03*
D27*
X96510000Y-58300000D03*
X95490000Y-58300000D03*
D16*
X106635000Y-47900000D03*
X105615000Y-47900000D03*
X92740000Y-43400000D03*
X93760000Y-43400000D03*
X106610000Y-45700000D03*
X105590000Y-45700000D03*
D30*
X94375000Y-51590000D03*
X94375000Y-52610000D03*
D27*
X106635000Y-42400000D03*
X105615000Y-42400000D03*
X102525000Y-50900000D03*
X101505000Y-50900000D03*
D16*
X95990000Y-55900000D03*
X97010000Y-55900000D03*
D31*
X110300000Y-64440000D03*
D32*
X110300000Y-61900000D03*
X110300000Y-59360000D03*
X110300000Y-56820000D03*
X110300000Y-54280000D03*
X110300000Y-51740000D03*
X110300000Y-49200000D03*
X110300000Y-46660000D03*
X110300000Y-44120000D03*
X110300000Y-41580000D03*
X110300000Y-39040000D03*
X110300000Y-36500000D03*
D31*
X90000000Y-36500000D03*
D32*
X90000000Y-39040000D03*
X90000000Y-41580000D03*
X90000000Y-44120000D03*
X90000000Y-46660000D03*
X90000000Y-49200000D03*
X90000000Y-51740000D03*
X90000000Y-54280000D03*
X90000000Y-56820000D03*
X90000000Y-59360000D03*
X90000000Y-61900000D03*
X90000000Y-64440000D03*
M02*
