%TF.GenerationSoftware,KiCad,Pcbnew,7.0.1*%
%TF.CreationDate,2023-04-11T16:46:36+02:00*%
%TF.ProjectId,AFE_03,4146455f-3033-42e6-9b69-6361645f7063,rev?*%
%TF.SameCoordinates,Original*%
%TF.FileFunction,Drillmap*%
%TF.FilePolarity,Positive*%
%FSLAX45Y45*%
G04 Gerber Fmt 4.5, Leading zero omitted, Abs format (unit mm)*
G04 Created by KiCad (PCBNEW 7.0.1) date 2023-04-11 16:46:36*
%MOMM*%
%LPD*%
G01*
G04 APERTURE LIST*
%ADD10C,0.100000*%
%ADD11C,0.200000*%
G04 APERTURE END LIST*
D10*
X8800000Y-3430000D02*
X11240000Y-3430000D01*
X11240000Y-6990000D01*
X8800000Y-6990000D01*
X8800000Y-3430000D01*
D11*
X9042619Y-7307524D02*
X9042619Y-7107524D01*
X9042619Y-7107524D02*
X9090238Y-7107524D01*
X9090238Y-7107524D02*
X9118810Y-7117048D01*
X9118810Y-7117048D02*
X9137857Y-7136095D01*
X9137857Y-7136095D02*
X9147381Y-7155143D01*
X9147381Y-7155143D02*
X9156905Y-7193238D01*
X9156905Y-7193238D02*
X9156905Y-7221809D01*
X9156905Y-7221809D02*
X9147381Y-7259905D01*
X9147381Y-7259905D02*
X9137857Y-7278952D01*
X9137857Y-7278952D02*
X9118810Y-7298000D01*
X9118810Y-7298000D02*
X9090238Y-7307524D01*
X9090238Y-7307524D02*
X9042619Y-7307524D01*
X9242619Y-7307524D02*
X9242619Y-7174190D01*
X9242619Y-7212286D02*
X9252143Y-7193238D01*
X9252143Y-7193238D02*
X9261667Y-7183714D01*
X9261667Y-7183714D02*
X9280714Y-7174190D01*
X9280714Y-7174190D02*
X9299762Y-7174190D01*
X9366429Y-7307524D02*
X9366429Y-7174190D01*
X9366429Y-7107524D02*
X9356905Y-7117048D01*
X9356905Y-7117048D02*
X9366429Y-7126571D01*
X9366429Y-7126571D02*
X9375952Y-7117048D01*
X9375952Y-7117048D02*
X9366429Y-7107524D01*
X9366429Y-7107524D02*
X9366429Y-7126571D01*
X9490238Y-7307524D02*
X9471190Y-7298000D01*
X9471190Y-7298000D02*
X9461667Y-7278952D01*
X9461667Y-7278952D02*
X9461667Y-7107524D01*
X9595000Y-7307524D02*
X9575952Y-7298000D01*
X9575952Y-7298000D02*
X9566429Y-7278952D01*
X9566429Y-7278952D02*
X9566429Y-7107524D01*
X9823571Y-7307524D02*
X9823571Y-7107524D01*
X9823571Y-7107524D02*
X9890238Y-7250381D01*
X9890238Y-7250381D02*
X9956905Y-7107524D01*
X9956905Y-7107524D02*
X9956905Y-7307524D01*
X10137857Y-7307524D02*
X10137857Y-7202762D01*
X10137857Y-7202762D02*
X10128333Y-7183714D01*
X10128333Y-7183714D02*
X10109286Y-7174190D01*
X10109286Y-7174190D02*
X10071190Y-7174190D01*
X10071190Y-7174190D02*
X10052143Y-7183714D01*
X10137857Y-7298000D02*
X10118810Y-7307524D01*
X10118810Y-7307524D02*
X10071190Y-7307524D01*
X10071190Y-7307524D02*
X10052143Y-7298000D01*
X10052143Y-7298000D02*
X10042619Y-7278952D01*
X10042619Y-7278952D02*
X10042619Y-7259905D01*
X10042619Y-7259905D02*
X10052143Y-7240857D01*
X10052143Y-7240857D02*
X10071190Y-7231333D01*
X10071190Y-7231333D02*
X10118810Y-7231333D01*
X10118810Y-7231333D02*
X10137857Y-7221809D01*
X10233095Y-7174190D02*
X10233095Y-7374190D01*
X10233095Y-7183714D02*
X10252143Y-7174190D01*
X10252143Y-7174190D02*
X10290238Y-7174190D01*
X10290238Y-7174190D02*
X10309286Y-7183714D01*
X10309286Y-7183714D02*
X10318810Y-7193238D01*
X10318810Y-7193238D02*
X10328333Y-7212286D01*
X10328333Y-7212286D02*
X10328333Y-7269428D01*
X10328333Y-7269428D02*
X10318810Y-7288476D01*
X10318810Y-7288476D02*
X10309286Y-7298000D01*
X10309286Y-7298000D02*
X10290238Y-7307524D01*
X10290238Y-7307524D02*
X10252143Y-7307524D01*
X10252143Y-7307524D02*
X10233095Y-7298000D01*
X10414048Y-7288476D02*
X10423571Y-7298000D01*
X10423571Y-7298000D02*
X10414048Y-7307524D01*
X10414048Y-7307524D02*
X10404524Y-7298000D01*
X10404524Y-7298000D02*
X10414048Y-7288476D01*
X10414048Y-7288476D02*
X10414048Y-7307524D01*
X10414048Y-7183714D02*
X10423571Y-7193238D01*
X10423571Y-7193238D02*
X10414048Y-7202762D01*
X10414048Y-7202762D02*
X10404524Y-7193238D01*
X10404524Y-7193238D02*
X10414048Y-7183714D01*
X10414048Y-7183714D02*
X10414048Y-7202762D01*
M02*
