M48
; DRILL file {KiCad 7.0.1} date Tue Apr 11 16:46:35 2023
; FORMAT={-:-/ absolute / metric / decimal}
; #@! TF.CreationDate,2023-04-11T16:46:35+02:00
; #@! TF.GenerationSoftware,Kicad,Pcbnew,7.0.1
; #@! TF.FileFunction,Plated,1,4,PTH
FMAT,2
METRIC
; #@! TA.AperFunction,Plated,PTH,ViaDrill
T1C0.300
; #@! TA.AperFunction,Plated,PTH,ComponentDrill
T2C0.950
; #@! TA.AperFunction,Plated,PTH,ComponentDrill
T3C1.000
%
G90
G05
T1
X91.4Y-68.2
X92.05Y-62.15
X92.8Y-41.1
X93.5Y-59.3
X93.5Y-59.85
X93.5Y-66.5
X94.35Y-59.3
X94.35Y-59.85
X94.375Y-53.35
X94.6Y-57.3
X94.6Y-58.3
X94.8Y-43.3
X94.9Y-42.2
X95.85Y-66.35
X95.85Y-67.0
X96.2Y-41.1
X96.325Y-44.175
X96.45Y-66.35
X96.45Y-67.0
X96.9Y-53.3
X97.05Y-66.35
X97.05Y-67.0
X97.5Y-43.05
X98.1Y-58.2
X98.4Y-42.25
X98.76Y-50.69
X99.4Y-61.1
X99.4Y-61.65
X99.98Y-40.22
X100.4Y-53.6
X100.5Y-50.25
X100.905Y-52.0
X101.0Y-40.6
X102.0Y-42.4
X103.105Y-50.9
X103.7Y-51.5
X104.852Y-42.431
X105.0Y-49.0
X106.2Y-54.15
T2
X100.6Y-65.8
X103.1Y-65.8
X105.6Y-65.8
T3
X90.0Y-36.5
X90.0Y-39.04
X90.0Y-41.58
X90.0Y-44.12
X90.0Y-46.66
X90.0Y-49.2
X90.0Y-51.74
X90.0Y-54.28
X90.0Y-56.82
X90.0Y-59.36
X90.0Y-61.9
X90.0Y-64.44
X110.3Y-36.5
X110.3Y-39.04
X110.3Y-41.58
X110.3Y-44.12
X110.3Y-46.66
X110.3Y-49.2
X110.3Y-51.74
X110.3Y-54.28
X110.3Y-56.82
X110.3Y-59.36
X110.3Y-61.9
X110.3Y-64.44
T0
M30
