G04 #@! TF.GenerationSoftware,KiCad,Pcbnew,7.0.1*
G04 #@! TF.CreationDate,2023-04-11T16:46:24+02:00*
G04 #@! TF.ProjectId,AFE_03,4146455f-3033-42e6-9b69-6361645f7063,rev?*
G04 #@! TF.SameCoordinates,Original*
G04 #@! TF.FileFunction,Copper,L4,Bot*
G04 #@! TF.FilePolarity,Positive*
%FSLAX46Y46*%
G04 Gerber Fmt 4.6, Leading zero omitted, Abs format (unit mm)*
G04 Created by KiCad (PCBNEW 7.0.1) date 2023-04-11 16:46:24*
%MOMM*%
%LPD*%
G01*
G04 APERTURE LIST*
G04 Aperture macros list*
%AMRoundRect*
0 Rectangle with rounded corners*
0 $1 Rounding radius*
0 $2 $3 $4 $5 $6 $7 $8 $9 X,Y pos of 4 corners*
0 Add a 4 corners polygon primitive as box body*
4,1,4,$2,$3,$4,$5,$6,$7,$8,$9,$2,$3,0*
0 Add four circle primitives for the rounded corners*
1,1,$1+$1,$2,$3*
1,1,$1+$1,$4,$5*
1,1,$1+$1,$6,$7*
1,1,$1+$1,$8,$9*
0 Add four rect primitives between the rounded corners*
20,1,$1+$1,$2,$3,$4,$5,0*
20,1,$1+$1,$4,$5,$6,$7,0*
20,1,$1+$1,$6,$7,$8,$9,0*
20,1,$1+$1,$8,$9,$2,$3,0*%
%AMFreePoly0*
4,1,19,0.550000,-0.750000,0.000000,-0.750000,0.000000,-0.744911,-0.071157,-0.744911,-0.207708,-0.704816,-0.327430,-0.627875,-0.420627,-0.520320,-0.479746,-0.390866,-0.500000,-0.250000,-0.500000,0.250000,-0.479746,0.390866,-0.420627,0.520320,-0.327430,0.627875,-0.207708,0.704816,-0.071157,0.744911,0.000000,0.744911,0.000000,0.750000,0.550000,0.750000,0.550000,-0.750000,0.550000,-0.750000,
$1*%
%AMFreePoly1*
4,1,19,0.000000,0.744911,0.071157,0.744911,0.207708,0.704816,0.327430,0.627875,0.420627,0.520320,0.479746,0.390866,0.500000,0.250000,0.500000,-0.250000,0.479746,-0.390866,0.420627,-0.520320,0.327430,-0.627875,0.207708,-0.704816,0.071157,-0.744911,0.000000,-0.744911,0.000000,-0.750000,-0.550000,-0.750000,-0.550000,0.750000,0.000000,0.750000,0.000000,0.744911,0.000000,0.744911,
$1*%
G04 Aperture macros list end*
G04 #@! TA.AperFunction,ComponentPad*
%ADD10RoundRect,0.250000X-0.600000X-0.725000X0.600000X-0.725000X0.600000X0.725000X-0.600000X0.725000X0*%
G04 #@! TD*
G04 #@! TA.AperFunction,ComponentPad*
%ADD11O,1.700000X1.950000*%
G04 #@! TD*
G04 #@! TA.AperFunction,SMDPad,CuDef*
%ADD12FreePoly0,180.000000*%
G04 #@! TD*
G04 #@! TA.AperFunction,SMDPad,CuDef*
%ADD13R,1.000000X1.500000*%
G04 #@! TD*
G04 #@! TA.AperFunction,SMDPad,CuDef*
%ADD14FreePoly1,180.000000*%
G04 #@! TD*
G04 #@! TA.AperFunction,ComponentPad*
%ADD15R,1.700000X1.700000*%
G04 #@! TD*
G04 #@! TA.AperFunction,ComponentPad*
%ADD16O,1.700000X1.700000*%
G04 #@! TD*
G04 #@! TA.AperFunction,ViaPad*
%ADD17C,0.450000*%
G04 #@! TD*
G04 #@! TA.AperFunction,Conductor*
%ADD18C,0.250000*%
G04 #@! TD*
G04 #@! TA.AperFunction,Conductor*
%ADD19C,0.750000*%
G04 #@! TD*
G04 APERTURE END LIST*
D10*
X100600000Y-65800000D03*
D11*
X103100000Y-65800000D03*
X105600000Y-65800000D03*
D12*
X100400000Y-55100000D03*
D13*
X99100000Y-55100000D03*
D14*
X97800000Y-55100000D03*
D15*
X110300000Y-64440000D03*
D16*
X110300000Y-61900000D03*
X110300000Y-59360000D03*
X110300000Y-56820000D03*
X110300000Y-54280000D03*
X110300000Y-51740000D03*
X110300000Y-49200000D03*
X110300000Y-46660000D03*
X110300000Y-44120000D03*
X110300000Y-41580000D03*
X110300000Y-39040000D03*
X110300000Y-36500000D03*
D15*
X90000000Y-36500000D03*
D16*
X90000000Y-39040000D03*
X90000000Y-41580000D03*
X90000000Y-44120000D03*
X90000000Y-46660000D03*
X90000000Y-49200000D03*
X90000000Y-51740000D03*
X90000000Y-54280000D03*
X90000000Y-56820000D03*
X90000000Y-59360000D03*
X90000000Y-61900000D03*
X90000000Y-64440000D03*
D17*
X99400000Y-61650000D03*
X94350000Y-59850000D03*
X93500000Y-59850000D03*
X93500000Y-59300000D03*
X94375000Y-53350000D03*
X96900000Y-53300000D03*
X97500000Y-43050000D03*
X94900000Y-42200000D03*
X100500000Y-50250000D03*
X101000000Y-40600000D03*
X93500000Y-66500000D03*
X106200000Y-54150000D03*
X94600000Y-58300000D03*
X94800000Y-43300000D03*
X98100000Y-58200000D03*
X92050000Y-62150000D03*
X92800000Y-41100000D03*
X91400000Y-68200000D03*
X98400000Y-42250000D03*
X103700000Y-51500000D03*
X96325000Y-44175000D03*
X94350000Y-59300000D03*
X99980000Y-40220000D03*
X94600000Y-57300000D03*
X96200000Y-41100000D03*
X98760000Y-50690000D03*
X100400000Y-53600000D03*
X95850000Y-66350000D03*
X103105000Y-50900000D03*
X96450000Y-67000000D03*
X100905000Y-52000000D03*
X97050000Y-66350000D03*
X99400000Y-61100000D03*
X96450000Y-66350000D03*
X97050000Y-67000000D03*
X95850000Y-67000000D03*
X104852350Y-42430827D03*
X105000000Y-49000000D03*
X102000000Y-42400000D03*
D18*
X98760000Y-50690000D02*
X99100000Y-51030000D01*
X99100000Y-51030000D02*
X99100000Y-55100000D01*
X98400000Y-40400000D02*
X99760000Y-39040000D01*
X98400000Y-42250000D02*
X98400000Y-40400000D01*
X99760000Y-39040000D02*
X110300000Y-39040000D01*
X98400000Y-42250000D02*
X98400000Y-44400000D01*
X98400000Y-44400000D02*
X103700000Y-49700000D01*
X103700000Y-49700000D02*
X103700000Y-51500000D01*
X97800000Y-55100000D02*
X91720000Y-55100000D01*
X91720000Y-55100000D02*
X90000000Y-56820000D01*
X100400000Y-53600000D02*
X100400000Y-55100000D01*
D19*
X100400000Y-55100000D02*
X99100000Y-55100000D01*
G04 #@! TA.AperFunction,Conductor*
G36*
X111938000Y-34516613D02*
G01*
X111983387Y-34562000D01*
X112000000Y-34624000D01*
X112000000Y-69376000D01*
X111983387Y-69438000D01*
X111938000Y-69483387D01*
X111876000Y-69500000D01*
X88524000Y-69500000D01*
X88462000Y-69483387D01*
X88416613Y-69438000D01*
X88400000Y-69376000D01*
X88400000Y-67000000D01*
X95369610Y-67000000D01*
X95389068Y-67135342D01*
X95445869Y-67259717D01*
X95535412Y-67363056D01*
X95650437Y-67436977D01*
X95650439Y-67436978D01*
X95781633Y-67475500D01*
X95918367Y-67475500D01*
X96049561Y-67436978D01*
X96082961Y-67415512D01*
X96126530Y-67398069D01*
X96173465Y-67398069D01*
X96217034Y-67415510D01*
X96250439Y-67436978D01*
X96381633Y-67475500D01*
X96518367Y-67475500D01*
X96649561Y-67436978D01*
X96682961Y-67415512D01*
X96726530Y-67398069D01*
X96773465Y-67398069D01*
X96817034Y-67415510D01*
X96850439Y-67436978D01*
X96981633Y-67475500D01*
X97118367Y-67475500D01*
X97249561Y-67436978D01*
X97364589Y-67363055D01*
X97454130Y-67259718D01*
X97510931Y-67135342D01*
X97530390Y-67000000D01*
X97510931Y-66864658D01*
X97454130Y-66740282D01*
X97454129Y-66740281D01*
X97447841Y-66726512D01*
X97436635Y-66675000D01*
X97447841Y-66623488D01*
X97510931Y-66485342D01*
X97510931Y-66485341D01*
X97530390Y-66350000D01*
X97510931Y-66214658D01*
X97454130Y-66090282D01*
X97419226Y-66050000D01*
X99450000Y-66050000D01*
X99450000Y-66568065D01*
X99460613Y-66656444D01*
X99516078Y-66797093D01*
X99607434Y-66917565D01*
X99727906Y-67008921D01*
X99868555Y-67064386D01*
X99956935Y-67075000D01*
X100350000Y-67075000D01*
X100350000Y-66050000D01*
X100850000Y-66050000D01*
X100850000Y-67075000D01*
X101243065Y-67075000D01*
X101331444Y-67064386D01*
X101472093Y-67008921D01*
X101592565Y-66917565D01*
X101683921Y-66797093D01*
X101739386Y-66656444D01*
X101750000Y-66568065D01*
X101750000Y-66050000D01*
X100850000Y-66050000D01*
X100350000Y-66050000D01*
X99450000Y-66050000D01*
X97419226Y-66050000D01*
X97364589Y-65986945D01*
X97364588Y-65986944D01*
X97364587Y-65986943D01*
X97349776Y-65977425D01*
X101999500Y-65977425D01*
X102004529Y-66030086D01*
X102014472Y-66134220D01*
X102073683Y-66335873D01*
X102169990Y-66522684D01*
X102299906Y-66687884D01*
X102458745Y-66825520D01*
X102557259Y-66882397D01*
X102640756Y-66930604D01*
X102734241Y-66962959D01*
X102839366Y-66999344D01*
X102874298Y-67004366D01*
X103047398Y-67029254D01*
X103257330Y-67019254D01*
X103461576Y-66969704D01*
X103547195Y-66930603D01*
X103652752Y-66882397D01*
X103732624Y-66825520D01*
X103823952Y-66760486D01*
X103968986Y-66608378D01*
X104082613Y-66431572D01*
X104160725Y-66236457D01*
X104200500Y-66030085D01*
X104200500Y-65977425D01*
X104499500Y-65977425D01*
X104504529Y-66030086D01*
X104514472Y-66134220D01*
X104573683Y-66335873D01*
X104669990Y-66522684D01*
X104799906Y-66687884D01*
X104958745Y-66825520D01*
X105057259Y-66882397D01*
X105140756Y-66930604D01*
X105234241Y-66962959D01*
X105339366Y-66999344D01*
X105374298Y-67004366D01*
X105547398Y-67029254D01*
X105757330Y-67019254D01*
X105961576Y-66969704D01*
X106047195Y-66930603D01*
X106152752Y-66882397D01*
X106232624Y-66825520D01*
X106323952Y-66760486D01*
X106468986Y-66608378D01*
X106582613Y-66431572D01*
X106660725Y-66236457D01*
X106700500Y-66030085D01*
X106700500Y-65622575D01*
X106685528Y-65465782D01*
X106626316Y-65264125D01*
X106530011Y-65077318D01*
X106486367Y-65021821D01*
X106400093Y-64912115D01*
X106241254Y-64774479D01*
X106094932Y-64690000D01*
X109150001Y-64690000D01*
X109150001Y-65334795D01*
X109152909Y-65359873D01*
X109198213Y-65462479D01*
X109277519Y-65541785D01*
X109380125Y-65587090D01*
X109405208Y-65590000D01*
X110050000Y-65590000D01*
X110050000Y-64690000D01*
X110550000Y-64690000D01*
X110550000Y-65589999D01*
X111194795Y-65589999D01*
X111219873Y-65587090D01*
X111322479Y-65541786D01*
X111401785Y-65462480D01*
X111447090Y-65359874D01*
X111450000Y-65334792D01*
X111450000Y-64690000D01*
X110550000Y-64690000D01*
X110050000Y-64690000D01*
X109150001Y-64690000D01*
X106094932Y-64690000D01*
X106059245Y-64669396D01*
X105860633Y-64600655D01*
X105652603Y-64570746D01*
X105652602Y-64570746D01*
X105547636Y-64575745D01*
X105442669Y-64580746D01*
X105238419Y-64630297D01*
X105047247Y-64717602D01*
X104876050Y-64839512D01*
X104731013Y-64991623D01*
X104617387Y-65168425D01*
X104539274Y-65363545D01*
X104504921Y-65541786D01*
X104499500Y-65569915D01*
X104499500Y-65977425D01*
X104200500Y-65977425D01*
X104200500Y-65622575D01*
X104185528Y-65465782D01*
X104126316Y-65264125D01*
X104030011Y-65077318D01*
X103986367Y-65021821D01*
X103900093Y-64912115D01*
X103741254Y-64774479D01*
X103559245Y-64669396D01*
X103360633Y-64600655D01*
X103152603Y-64570746D01*
X103152602Y-64570746D01*
X103047636Y-64575745D01*
X102942669Y-64580746D01*
X102738419Y-64630297D01*
X102547247Y-64717602D01*
X102376050Y-64839512D01*
X102231013Y-64991623D01*
X102117387Y-65168425D01*
X102039274Y-65363545D01*
X102004921Y-65541786D01*
X101999500Y-65569915D01*
X101999500Y-65977425D01*
X97349776Y-65977425D01*
X97249562Y-65913022D01*
X97118367Y-65874500D01*
X96981633Y-65874500D01*
X96850438Y-65913022D01*
X96817037Y-65934487D01*
X96750000Y-65954170D01*
X96682963Y-65934487D01*
X96649561Y-65913022D01*
X96518367Y-65874500D01*
X96381633Y-65874500D01*
X96250438Y-65913022D01*
X96217037Y-65934487D01*
X96150000Y-65954170D01*
X96082963Y-65934487D01*
X96049561Y-65913022D01*
X95918367Y-65874500D01*
X95781633Y-65874500D01*
X95650437Y-65913022D01*
X95535412Y-65986943D01*
X95445869Y-66090282D01*
X95389068Y-66214657D01*
X95369610Y-66349999D01*
X95389068Y-66485342D01*
X95452158Y-66623487D01*
X95463364Y-66674999D01*
X95452158Y-66726510D01*
X95389069Y-66864655D01*
X95369610Y-67000000D01*
X88400000Y-67000000D01*
X88400000Y-65550000D01*
X99450000Y-65550000D01*
X100350000Y-65550000D01*
X100350000Y-64525000D01*
X100850000Y-64525000D01*
X100850000Y-65550000D01*
X101750000Y-65550000D01*
X101750000Y-65031935D01*
X101739386Y-64943555D01*
X101683921Y-64802906D01*
X101592565Y-64682434D01*
X101472093Y-64591078D01*
X101331444Y-64535613D01*
X101243065Y-64525000D01*
X100850000Y-64525000D01*
X100350000Y-64525000D01*
X99956935Y-64525000D01*
X99868555Y-64535613D01*
X99727906Y-64591078D01*
X99607434Y-64682434D01*
X99516078Y-64802906D01*
X99460613Y-64943555D01*
X99450000Y-65031935D01*
X99450000Y-65550000D01*
X88400000Y-65550000D01*
X88400000Y-64440000D01*
X88894785Y-64440000D01*
X88913602Y-64643083D01*
X88969418Y-64839251D01*
X89060324Y-65021818D01*
X89183236Y-65184580D01*
X89333958Y-65321981D01*
X89401087Y-65363545D01*
X89507363Y-65429348D01*
X89697544Y-65503024D01*
X89898024Y-65540500D01*
X90101974Y-65540500D01*
X90101976Y-65540500D01*
X90302456Y-65503024D01*
X90492637Y-65429348D01*
X90666041Y-65321981D01*
X90816764Y-65184579D01*
X90939673Y-65021821D01*
X90939673Y-65021819D01*
X90939675Y-65021818D01*
X90994300Y-64912114D01*
X91030582Y-64839250D01*
X91086397Y-64643083D01*
X91105215Y-64440000D01*
X91086397Y-64236917D01*
X91073048Y-64190000D01*
X109150000Y-64190000D01*
X110050000Y-64190000D01*
X110050000Y-63290001D01*
X109405205Y-63290001D01*
X109380126Y-63292909D01*
X109277520Y-63338213D01*
X109198214Y-63417519D01*
X109152909Y-63520125D01*
X109150000Y-63545208D01*
X109150000Y-64190000D01*
X91073048Y-64190000D01*
X91030582Y-64040750D01*
X91030209Y-64040001D01*
X90939675Y-63858181D01*
X90816763Y-63695419D01*
X90666041Y-63558018D01*
X90492638Y-63450652D01*
X90302457Y-63376976D01*
X90235629Y-63364483D01*
X90101976Y-63339500D01*
X89898024Y-63339500D01*
X89797784Y-63358237D01*
X89697542Y-63376976D01*
X89507361Y-63450652D01*
X89333958Y-63558018D01*
X89183236Y-63695419D01*
X89060324Y-63858181D01*
X88969418Y-64040748D01*
X88913602Y-64236916D01*
X88894785Y-64440000D01*
X88400000Y-64440000D01*
X88400000Y-63290000D01*
X110550000Y-63290000D01*
X110550000Y-64190000D01*
X111449999Y-64190000D01*
X111449999Y-63545205D01*
X111447090Y-63520126D01*
X111401786Y-63417520D01*
X111322480Y-63338214D01*
X111219874Y-63292909D01*
X111194792Y-63290000D01*
X110550000Y-63290000D01*
X88400000Y-63290000D01*
X88400000Y-61900000D01*
X88894785Y-61900000D01*
X88913602Y-62103083D01*
X88969418Y-62299251D01*
X89060324Y-62481818D01*
X89183236Y-62644580D01*
X89333958Y-62781981D01*
X89507361Y-62889347D01*
X89507363Y-62889348D01*
X89697544Y-62963024D01*
X89898024Y-63000500D01*
X90101974Y-63000500D01*
X90101976Y-63000500D01*
X90302456Y-62963024D01*
X90492637Y-62889348D01*
X90666041Y-62781981D01*
X90816764Y-62644579D01*
X90939673Y-62481821D01*
X90939673Y-62481819D01*
X90939675Y-62481818D01*
X90985313Y-62390161D01*
X91030582Y-62299250D01*
X91086397Y-62103083D01*
X91105215Y-61900000D01*
X91086397Y-61696917D01*
X91073048Y-61650000D01*
X98919610Y-61650000D01*
X98939068Y-61785342D01*
X98995869Y-61909717D01*
X99085412Y-62013056D01*
X99200437Y-62086977D01*
X99200439Y-62086978D01*
X99331633Y-62125500D01*
X99468367Y-62125500D01*
X99599561Y-62086978D01*
X99714589Y-62013055D01*
X99804130Y-61909718D01*
X99808568Y-61900000D01*
X109194785Y-61900000D01*
X109213602Y-62103083D01*
X109269418Y-62299251D01*
X109360324Y-62481818D01*
X109483236Y-62644580D01*
X109633958Y-62781981D01*
X109807361Y-62889347D01*
X109807363Y-62889348D01*
X109997544Y-62963024D01*
X110198024Y-63000500D01*
X110401974Y-63000500D01*
X110401976Y-63000500D01*
X110602456Y-62963024D01*
X110792637Y-62889348D01*
X110966041Y-62781981D01*
X111116764Y-62644579D01*
X111239673Y-62481821D01*
X111239673Y-62481819D01*
X111239675Y-62481818D01*
X111285313Y-62390161D01*
X111330582Y-62299250D01*
X111386397Y-62103083D01*
X111405215Y-61900000D01*
X111386397Y-61696917D01*
X111330582Y-61500750D01*
X111330209Y-61500001D01*
X111239675Y-61318181D01*
X111116763Y-61155419D01*
X110966041Y-61018018D01*
X110792638Y-60910652D01*
X110602457Y-60836976D01*
X110535629Y-60824484D01*
X110401976Y-60799500D01*
X110198024Y-60799500D01*
X110097783Y-60818238D01*
X109997542Y-60836976D01*
X109807361Y-60910652D01*
X109633958Y-61018018D01*
X109483236Y-61155419D01*
X109360324Y-61318181D01*
X109269418Y-61500748D01*
X109213602Y-61696916D01*
X109194785Y-61900000D01*
X99808568Y-61900000D01*
X99860931Y-61785342D01*
X99880390Y-61650000D01*
X99860931Y-61514658D01*
X99854579Y-61500750D01*
X99820676Y-61426512D01*
X99809470Y-61375000D01*
X99820676Y-61323488D01*
X99860931Y-61235342D01*
X99860930Y-61235342D01*
X99880390Y-61100000D01*
X99860931Y-60964658D01*
X99804130Y-60840282D01*
X99714589Y-60736945D01*
X99714588Y-60736944D01*
X99714587Y-60736943D01*
X99599562Y-60663022D01*
X99468367Y-60624500D01*
X99331633Y-60624500D01*
X99200437Y-60663022D01*
X99085412Y-60736943D01*
X98995869Y-60840282D01*
X98939068Y-60964657D01*
X98919610Y-61100000D01*
X98939069Y-61235344D01*
X98979323Y-61323488D01*
X98990529Y-61374999D01*
X98979324Y-61426510D01*
X98939068Y-61514658D01*
X98919610Y-61650000D01*
X91073048Y-61650000D01*
X91030582Y-61500750D01*
X91030209Y-61500001D01*
X90939675Y-61318181D01*
X90816763Y-61155419D01*
X90666041Y-61018018D01*
X90492638Y-60910652D01*
X90302457Y-60836976D01*
X90235629Y-60824484D01*
X90101976Y-60799500D01*
X89898024Y-60799500D01*
X89797783Y-60818238D01*
X89697542Y-60836976D01*
X89507361Y-60910652D01*
X89333958Y-61018018D01*
X89183236Y-61155419D01*
X89060324Y-61318181D01*
X88969418Y-61500748D01*
X88913602Y-61696916D01*
X88894785Y-61900000D01*
X88400000Y-61900000D01*
X88400000Y-59359999D01*
X88894785Y-59359999D01*
X88913602Y-59563083D01*
X88969418Y-59759251D01*
X89060324Y-59941818D01*
X89183236Y-60104580D01*
X89333958Y-60241981D01*
X89468847Y-60325500D01*
X89507363Y-60349348D01*
X89697544Y-60423024D01*
X89898024Y-60460500D01*
X90101974Y-60460500D01*
X90101976Y-60460500D01*
X90302456Y-60423024D01*
X90492637Y-60349348D01*
X90666041Y-60241981D01*
X90816764Y-60104579D01*
X90939673Y-59941821D01*
X90939673Y-59941819D01*
X90939675Y-59941818D01*
X90985394Y-59850000D01*
X93019610Y-59850000D01*
X93039068Y-59985342D01*
X93095869Y-60109717D01*
X93185412Y-60213056D01*
X93230421Y-60241981D01*
X93300439Y-60286978D01*
X93431633Y-60325500D01*
X93568367Y-60325500D01*
X93699561Y-60286978D01*
X93814589Y-60213055D01*
X93831287Y-60193784D01*
X93873488Y-60162193D01*
X93925000Y-60150987D01*
X93976512Y-60162193D01*
X94018714Y-60193785D01*
X94035412Y-60213056D01*
X94080421Y-60241981D01*
X94150439Y-60286978D01*
X94281633Y-60325500D01*
X94418367Y-60325500D01*
X94549561Y-60286978D01*
X94664589Y-60213055D01*
X94754130Y-60109718D01*
X94810931Y-59985342D01*
X94830390Y-59850000D01*
X94810931Y-59714658D01*
X94775000Y-59635980D01*
X94770676Y-59626511D01*
X94759470Y-59574999D01*
X94770676Y-59523487D01*
X94810931Y-59435342D01*
X94821763Y-59360000D01*
X94821763Y-59359999D01*
X109194785Y-59359999D01*
X109213602Y-59563083D01*
X109269418Y-59759251D01*
X109360324Y-59941818D01*
X109483236Y-60104580D01*
X109633958Y-60241981D01*
X109768847Y-60325500D01*
X109807363Y-60349348D01*
X109997544Y-60423024D01*
X110198024Y-60460500D01*
X110401974Y-60460500D01*
X110401976Y-60460500D01*
X110602456Y-60423024D01*
X110792637Y-60349348D01*
X110966041Y-60241981D01*
X111116764Y-60104579D01*
X111239673Y-59941821D01*
X111239673Y-59941819D01*
X111239675Y-59941818D01*
X111285394Y-59850000D01*
X111330582Y-59759250D01*
X111386397Y-59563083D01*
X111405215Y-59360000D01*
X111386397Y-59156917D01*
X111330582Y-58960750D01*
X111281920Y-58863022D01*
X111239675Y-58778181D01*
X111116763Y-58615419D01*
X110966041Y-58478018D01*
X110792638Y-58370652D01*
X110602457Y-58296976D01*
X110535629Y-58284484D01*
X110401976Y-58259500D01*
X110198024Y-58259500D01*
X110097783Y-58278238D01*
X109997542Y-58296976D01*
X109807361Y-58370652D01*
X109633958Y-58478018D01*
X109483236Y-58615419D01*
X109360324Y-58778181D01*
X109269418Y-58960748D01*
X109213602Y-59156916D01*
X109194785Y-59359999D01*
X94821763Y-59359999D01*
X94830390Y-59300000D01*
X94810931Y-59164658D01*
X94807395Y-59156916D01*
X94754130Y-59040282D01*
X94664587Y-58936943D01*
X94549562Y-58863022D01*
X94418367Y-58824500D01*
X94281633Y-58824500D01*
X94150437Y-58863022D01*
X94035411Y-58936943D01*
X94018713Y-58956215D01*
X93959935Y-58993989D01*
X93890065Y-58993989D01*
X93831287Y-58956215D01*
X93814588Y-58936943D01*
X93699562Y-58863022D01*
X93568367Y-58824500D01*
X93431633Y-58824500D01*
X93300437Y-58863022D01*
X93185412Y-58936943D01*
X93095869Y-59040282D01*
X93039068Y-59164657D01*
X93019610Y-59300000D01*
X93039068Y-59435341D01*
X93079324Y-59523489D01*
X93090529Y-59575000D01*
X93079324Y-59626511D01*
X93039068Y-59714658D01*
X93019610Y-59850000D01*
X90985394Y-59850000D01*
X91030582Y-59759250D01*
X91086397Y-59563083D01*
X91105215Y-59360000D01*
X91086397Y-59156917D01*
X91030582Y-58960750D01*
X90981920Y-58863022D01*
X90939675Y-58778181D01*
X90816763Y-58615419D01*
X90666041Y-58478018D01*
X90492638Y-58370652D01*
X90302457Y-58296976D01*
X90235629Y-58284484D01*
X90101976Y-58259500D01*
X89898024Y-58259500D01*
X89797783Y-58278238D01*
X89697542Y-58296976D01*
X89507361Y-58370652D01*
X89333958Y-58478018D01*
X89183236Y-58615419D01*
X89060324Y-58778181D01*
X88969418Y-58960748D01*
X88913602Y-59156916D01*
X88894785Y-59359999D01*
X88400000Y-59359999D01*
X88400000Y-56820000D01*
X88894785Y-56820000D01*
X88913602Y-57023083D01*
X88969418Y-57219251D01*
X89060324Y-57401818D01*
X89183236Y-57564580D01*
X89333958Y-57701981D01*
X89452696Y-57775500D01*
X89507363Y-57809348D01*
X89697544Y-57883024D01*
X89898024Y-57920500D01*
X90101974Y-57920500D01*
X90101976Y-57920500D01*
X90302456Y-57883024D01*
X90492637Y-57809348D01*
X90666041Y-57701981D01*
X90816764Y-57564579D01*
X90939673Y-57401821D01*
X90939673Y-57401819D01*
X90939675Y-57401818D01*
X90985313Y-57310161D01*
X90990373Y-57300000D01*
X94119610Y-57300000D01*
X94139068Y-57435342D01*
X94195869Y-57559717D01*
X94285412Y-57663056D01*
X94400437Y-57736977D01*
X94400439Y-57736978D01*
X94531633Y-57775500D01*
X94668367Y-57775500D01*
X94799561Y-57736978D01*
X94914589Y-57663055D01*
X95004130Y-57559718D01*
X95060931Y-57435342D01*
X95080390Y-57300000D01*
X95060931Y-57164658D01*
X95004130Y-57040282D01*
X94914589Y-56936945D01*
X94914588Y-56936944D01*
X94914587Y-56936943D01*
X94799562Y-56863022D01*
X94668367Y-56824500D01*
X94531633Y-56824500D01*
X94400437Y-56863022D01*
X94285412Y-56936943D01*
X94195869Y-57040282D01*
X94139068Y-57164657D01*
X94119610Y-57300000D01*
X90990373Y-57300000D01*
X91030582Y-57219250D01*
X91086397Y-57023083D01*
X91105215Y-56820000D01*
X109194785Y-56820000D01*
X109213602Y-57023083D01*
X109269418Y-57219251D01*
X109360324Y-57401818D01*
X109483236Y-57564580D01*
X109633958Y-57701981D01*
X109752696Y-57775500D01*
X109807363Y-57809348D01*
X109997544Y-57883024D01*
X110198024Y-57920500D01*
X110401974Y-57920500D01*
X110401976Y-57920500D01*
X110602456Y-57883024D01*
X110792637Y-57809348D01*
X110966041Y-57701981D01*
X111116764Y-57564579D01*
X111239673Y-57401821D01*
X111239673Y-57401819D01*
X111239675Y-57401818D01*
X111285313Y-57310161D01*
X111330582Y-57219250D01*
X111386397Y-57023083D01*
X111405215Y-56820000D01*
X111386397Y-56616917D01*
X111330582Y-56420750D01*
X111330209Y-56420001D01*
X111239675Y-56238181D01*
X111116763Y-56075419D01*
X110966041Y-55938018D01*
X110792638Y-55830652D01*
X110602457Y-55756976D01*
X110535629Y-55744484D01*
X110401976Y-55719500D01*
X110198024Y-55719500D01*
X110097783Y-55738238D01*
X109997542Y-55756976D01*
X109807361Y-55830652D01*
X109633958Y-55938018D01*
X109483236Y-56075419D01*
X109360324Y-56238181D01*
X109269418Y-56420748D01*
X109213602Y-56616916D01*
X109194785Y-56820000D01*
X91105215Y-56820000D01*
X91086397Y-56616917D01*
X91030582Y-56420750D01*
X91030581Y-56420748D01*
X91028308Y-56412758D01*
X91027556Y-56347653D01*
X91059891Y-56291144D01*
X91839217Y-55511819D01*
X91879446Y-55484939D01*
X91926899Y-55475500D01*
X96954076Y-55475500D01*
X97005587Y-55486705D01*
X97047788Y-55518296D01*
X97073052Y-55564563D01*
X97082992Y-55598415D01*
X97142718Y-55729197D01*
X97182024Y-55790358D01*
X97208633Y-55821066D01*
X97276176Y-55899016D01*
X97331119Y-55946624D01*
X97452073Y-56024356D01*
X97518200Y-56054555D01*
X97656155Y-56095062D01*
X97728111Y-56105408D01*
X98349999Y-56105408D01*
X98350000Y-56105408D01*
X98447740Y-56085966D01*
X98447741Y-56085964D01*
X98450807Y-56085355D01*
X98499193Y-56085355D01*
X98502258Y-56085964D01*
X98502260Y-56085966D01*
X98575326Y-56100500D01*
X99624673Y-56100500D01*
X99624674Y-56100500D01*
X99697740Y-56085966D01*
X99697741Y-56085964D01*
X99700807Y-56085355D01*
X99749193Y-56085355D01*
X99752258Y-56085964D01*
X99752260Y-56085966D01*
X99850000Y-56105408D01*
X100471888Y-56105408D01*
X100471889Y-56105408D01*
X100543845Y-56095062D01*
X100681800Y-56054555D01*
X100747927Y-56024356D01*
X100868881Y-55946624D01*
X100923824Y-55899016D01*
X101017978Y-55790355D01*
X101057279Y-55729201D01*
X101117007Y-55598416D01*
X101137488Y-55528664D01*
X101157950Y-55386349D01*
X101157950Y-55313651D01*
X101156669Y-55304747D01*
X101155408Y-55287102D01*
X101155408Y-54912898D01*
X101156670Y-54895251D01*
X101157950Y-54886348D01*
X101157950Y-54813652D01*
X101151269Y-54767188D01*
X101137488Y-54671336D01*
X101117007Y-54601584D01*
X101117005Y-54601579D01*
X101057281Y-54470802D01*
X101017975Y-54409641D01*
X100976799Y-54362121D01*
X100923824Y-54300984D01*
X100899607Y-54280000D01*
X109194785Y-54280000D01*
X109213602Y-54483083D01*
X109269418Y-54679251D01*
X109360324Y-54861818D01*
X109483236Y-55024580D01*
X109633958Y-55161981D01*
X109807361Y-55269347D01*
X109807363Y-55269348D01*
X109997544Y-55343024D01*
X110198024Y-55380500D01*
X110401974Y-55380500D01*
X110401976Y-55380500D01*
X110602456Y-55343024D01*
X110792637Y-55269348D01*
X110966041Y-55161981D01*
X111116764Y-55024579D01*
X111239673Y-54861821D01*
X111239673Y-54861819D01*
X111239675Y-54861818D01*
X111286794Y-54767188D01*
X111330582Y-54679250D01*
X111386397Y-54483083D01*
X111405215Y-54280000D01*
X111386397Y-54076917D01*
X111330582Y-53880750D01*
X111320109Y-53859718D01*
X111239675Y-53698181D01*
X111116763Y-53535419D01*
X110966041Y-53398018D01*
X110792638Y-53290652D01*
X110602457Y-53216976D01*
X110535629Y-53204483D01*
X110401976Y-53179500D01*
X110198024Y-53179500D01*
X110097784Y-53198237D01*
X109997542Y-53216976D01*
X109807361Y-53290652D01*
X109633958Y-53398018D01*
X109483236Y-53535419D01*
X109360324Y-53698181D01*
X109269418Y-53880748D01*
X109213602Y-54076916D01*
X109194785Y-54280000D01*
X100899607Y-54280000D01*
X100868881Y-54253376D01*
X100868878Y-54253374D01*
X100832460Y-54229969D01*
X100790668Y-54185081D01*
X100775500Y-54125654D01*
X100775500Y-53939008D01*
X100783319Y-53895673D01*
X100802384Y-53863539D01*
X100804127Y-53859720D01*
X100804130Y-53859718D01*
X100860931Y-53735342D01*
X100880390Y-53600000D01*
X100860931Y-53464658D01*
X100830497Y-53398018D01*
X100804130Y-53340282D01*
X100714587Y-53236943D01*
X100599562Y-53163022D01*
X100468367Y-53124500D01*
X100331633Y-53124500D01*
X100200437Y-53163022D01*
X100085412Y-53236943D01*
X99995869Y-53340282D01*
X99939068Y-53464657D01*
X99919610Y-53600000D01*
X99939068Y-53735342D01*
X99997615Y-53863539D01*
X100016681Y-53895673D01*
X100024500Y-53939008D01*
X100024500Y-53970592D01*
X100007887Y-54032592D01*
X99962500Y-54077979D01*
X99900500Y-54094592D01*
X99849998Y-54094592D01*
X99749188Y-54114644D01*
X99700805Y-54114644D01*
X99697740Y-54114034D01*
X99652012Y-54104938D01*
X99624675Y-54099500D01*
X99624674Y-54099500D01*
X99599500Y-54099500D01*
X99537500Y-54082887D01*
X99492113Y-54037500D01*
X99475500Y-53975500D01*
X99475500Y-52000000D01*
X100424610Y-52000000D01*
X100444068Y-52135342D01*
X100500869Y-52259717D01*
X100590412Y-52363056D01*
X100705437Y-52436977D01*
X100705439Y-52436978D01*
X100836633Y-52475500D01*
X100973367Y-52475500D01*
X101104561Y-52436978D01*
X101219589Y-52363055D01*
X101309130Y-52259718D01*
X101365931Y-52135342D01*
X101385390Y-52000000D01*
X101365931Y-51864658D01*
X101365199Y-51863056D01*
X101309130Y-51740282D01*
X101219587Y-51636943D01*
X101104562Y-51563022D01*
X100973367Y-51524500D01*
X100836633Y-51524500D01*
X100705437Y-51563022D01*
X100590412Y-51636943D01*
X100500869Y-51740282D01*
X100444068Y-51864657D01*
X100424610Y-52000000D01*
X99475500Y-52000000D01*
X99475500Y-51081804D01*
X99478139Y-51056358D01*
X99478831Y-51053056D01*
X99480367Y-51045732D01*
X99476452Y-51014323D01*
X99475500Y-50998986D01*
X99475500Y-50998889D01*
X99475500Y-50998886D01*
X99472074Y-50978357D01*
X99471342Y-50973334D01*
X99464866Y-50921375D01*
X99464864Y-50921371D01*
X99463889Y-50913547D01*
X99463819Y-50913327D01*
X99435169Y-50860388D01*
X99432822Y-50855829D01*
X99406360Y-50801700D01*
X99406225Y-50801519D01*
X99400419Y-50796174D01*
X99361906Y-50760720D01*
X99358231Y-50757194D01*
X99261067Y-50660029D01*
X99237864Y-50627851D01*
X99226011Y-50589993D01*
X99220931Y-50554657D01*
X99164130Y-50430282D01*
X99074587Y-50326943D01*
X98959562Y-50253022D01*
X98828367Y-50214500D01*
X98691633Y-50214500D01*
X98560437Y-50253022D01*
X98445412Y-50326943D01*
X98355869Y-50430282D01*
X98299068Y-50554657D01*
X98279610Y-50690000D01*
X98299068Y-50825342D01*
X98355869Y-50949717D01*
X98355870Y-50949718D01*
X98405232Y-51006686D01*
X98445412Y-51053056D01*
X98560437Y-51126977D01*
X98560439Y-51126978D01*
X98610382Y-51141642D01*
X98635435Y-51148999D01*
X98681703Y-51174263D01*
X98713294Y-51216465D01*
X98724500Y-51267976D01*
X98724500Y-53975500D01*
X98707887Y-54037500D01*
X98662500Y-54082887D01*
X98600500Y-54099500D01*
X98575325Y-54099500D01*
X98528340Y-54108846D01*
X98502260Y-54114034D01*
X98502259Y-54114034D01*
X98499194Y-54114644D01*
X98450811Y-54114644D01*
X98350002Y-54094592D01*
X98350000Y-54094592D01*
X97728111Y-54094592D01*
X97710122Y-54097178D01*
X97656152Y-54104938D01*
X97518200Y-54145444D01*
X97452075Y-54175643D01*
X97331119Y-54253376D01*
X97276173Y-54300987D01*
X97182024Y-54409641D01*
X97142718Y-54470802D01*
X97082992Y-54601584D01*
X97073052Y-54635437D01*
X97047788Y-54681704D01*
X97005587Y-54713295D01*
X96954076Y-54724500D01*
X91771803Y-54724500D01*
X91746357Y-54721861D01*
X91735731Y-54719633D01*
X91704324Y-54723548D01*
X91688987Y-54724500D01*
X91688886Y-54724500D01*
X91668359Y-54727924D01*
X91663300Y-54728661D01*
X91603556Y-54736109D01*
X91603316Y-54736186D01*
X91550359Y-54764844D01*
X91545805Y-54767188D01*
X91491721Y-54793628D01*
X91491506Y-54793788D01*
X91450729Y-54838082D01*
X91447183Y-54841777D01*
X90525027Y-55763933D01*
X90485680Y-55790444D01*
X90439257Y-55800237D01*
X90392553Y-55791879D01*
X90388619Y-55790355D01*
X90302456Y-55756976D01*
X90101976Y-55719500D01*
X89898024Y-55719500D01*
X89797783Y-55738238D01*
X89697542Y-55756976D01*
X89507361Y-55830652D01*
X89333958Y-55938018D01*
X89183236Y-56075419D01*
X89060324Y-56238181D01*
X88969418Y-56420748D01*
X88913602Y-56616916D01*
X88894785Y-56820000D01*
X88400000Y-56820000D01*
X88400000Y-54280000D01*
X88894785Y-54280000D01*
X88913602Y-54483083D01*
X88969418Y-54679251D01*
X89060324Y-54861818D01*
X89183236Y-55024580D01*
X89333958Y-55161981D01*
X89507361Y-55269347D01*
X89507363Y-55269348D01*
X89697544Y-55343024D01*
X89898024Y-55380500D01*
X90101974Y-55380500D01*
X90101976Y-55380500D01*
X90302456Y-55343024D01*
X90492637Y-55269348D01*
X90666041Y-55161981D01*
X90816764Y-55024579D01*
X90939673Y-54861821D01*
X90939673Y-54861819D01*
X90939675Y-54861818D01*
X90986794Y-54767188D01*
X91030582Y-54679250D01*
X91086397Y-54483083D01*
X91105215Y-54280000D01*
X91086397Y-54076917D01*
X91030582Y-53880750D01*
X91020109Y-53859718D01*
X90939675Y-53698181D01*
X90816763Y-53535419D01*
X90666041Y-53398018D01*
X90492638Y-53290652D01*
X90302457Y-53216976D01*
X90235629Y-53204483D01*
X90101976Y-53179500D01*
X89898024Y-53179500D01*
X89797784Y-53198237D01*
X89697542Y-53216976D01*
X89507361Y-53290652D01*
X89333958Y-53398018D01*
X89183236Y-53535419D01*
X89060324Y-53698181D01*
X88969418Y-53880748D01*
X88913602Y-54076916D01*
X88894785Y-54280000D01*
X88400000Y-54280000D01*
X88400000Y-51739999D01*
X88894785Y-51739999D01*
X88913602Y-51943083D01*
X88969418Y-52139251D01*
X89060324Y-52321818D01*
X89183236Y-52484580D01*
X89333958Y-52621981D01*
X89507361Y-52729347D01*
X89507363Y-52729348D01*
X89697544Y-52803024D01*
X89898024Y-52840500D01*
X90101974Y-52840500D01*
X90101976Y-52840500D01*
X90302456Y-52803024D01*
X90492637Y-52729348D01*
X90666041Y-52621981D01*
X90816764Y-52484579D01*
X90939673Y-52321821D01*
X90939673Y-52321819D01*
X90939675Y-52321818D01*
X90985313Y-52230161D01*
X91030582Y-52139250D01*
X91086397Y-51943083D01*
X91105215Y-51740000D01*
X91086397Y-51536917D01*
X91030582Y-51340750D01*
X90994345Y-51267976D01*
X90939675Y-51158181D01*
X90816763Y-50995419D01*
X90666041Y-50858018D01*
X90492638Y-50750652D01*
X90302457Y-50676976D01*
X90211797Y-50660029D01*
X90101976Y-50639500D01*
X89898024Y-50639500D01*
X89797783Y-50658238D01*
X89697542Y-50676976D01*
X89507361Y-50750652D01*
X89333958Y-50858018D01*
X89183236Y-50995419D01*
X89060324Y-51158181D01*
X88969418Y-51340748D01*
X88913602Y-51536916D01*
X88894785Y-51739999D01*
X88400000Y-51739999D01*
X88400000Y-49199999D01*
X88894785Y-49199999D01*
X88913602Y-49403083D01*
X88969418Y-49599251D01*
X89060324Y-49781818D01*
X89183236Y-49944580D01*
X89333958Y-50081981D01*
X89507361Y-50189347D01*
X89507363Y-50189348D01*
X89697544Y-50263024D01*
X89898024Y-50300500D01*
X90101974Y-50300500D01*
X90101976Y-50300500D01*
X90302456Y-50263024D01*
X90492637Y-50189348D01*
X90666041Y-50081981D01*
X90816764Y-49944579D01*
X90939673Y-49781821D01*
X90939673Y-49781819D01*
X90939675Y-49781818D01*
X90995858Y-49668986D01*
X91030582Y-49599250D01*
X91086397Y-49403083D01*
X91105215Y-49200000D01*
X91086397Y-48996917D01*
X91030582Y-48800750D01*
X91000473Y-48740282D01*
X90939675Y-48618181D01*
X90816763Y-48455419D01*
X90666041Y-48318018D01*
X90492638Y-48210652D01*
X90302457Y-48136976D01*
X90235629Y-48124484D01*
X90101976Y-48099500D01*
X89898024Y-48099500D01*
X89797784Y-48118237D01*
X89697542Y-48136976D01*
X89507361Y-48210652D01*
X89333958Y-48318018D01*
X89183236Y-48455419D01*
X89060324Y-48618181D01*
X88969418Y-48800748D01*
X88913602Y-48996916D01*
X88894785Y-49199999D01*
X88400000Y-49199999D01*
X88400000Y-46660000D01*
X88894785Y-46660000D01*
X88913602Y-46863083D01*
X88969418Y-47059251D01*
X89060324Y-47241818D01*
X89183236Y-47404580D01*
X89333958Y-47541981D01*
X89507361Y-47649347D01*
X89507363Y-47649348D01*
X89697544Y-47723024D01*
X89898024Y-47760500D01*
X90101974Y-47760500D01*
X90101976Y-47760500D01*
X90302456Y-47723024D01*
X90492637Y-47649348D01*
X90666041Y-47541981D01*
X90816764Y-47404579D01*
X90939673Y-47241821D01*
X90939673Y-47241819D01*
X90939675Y-47241818D01*
X90985313Y-47150161D01*
X91030582Y-47059250D01*
X91086397Y-46863083D01*
X91105215Y-46660000D01*
X91086397Y-46456917D01*
X91030582Y-46260750D01*
X91030209Y-46260001D01*
X90939675Y-46078181D01*
X90816763Y-45915419D01*
X90666041Y-45778018D01*
X90492638Y-45670652D01*
X90302457Y-45596976D01*
X90235629Y-45584484D01*
X90101976Y-45559500D01*
X89898024Y-45559500D01*
X89797783Y-45578238D01*
X89697542Y-45596976D01*
X89507361Y-45670652D01*
X89333958Y-45778018D01*
X89183236Y-45915419D01*
X89060324Y-46078181D01*
X88969418Y-46260748D01*
X88913602Y-46456916D01*
X88894785Y-46660000D01*
X88400000Y-46660000D01*
X88400000Y-44120000D01*
X88894785Y-44120000D01*
X88913602Y-44323083D01*
X88969418Y-44519251D01*
X89060324Y-44701818D01*
X89183236Y-44864580D01*
X89333958Y-45001981D01*
X89507361Y-45109347D01*
X89507363Y-45109348D01*
X89697544Y-45183024D01*
X89898024Y-45220500D01*
X90101974Y-45220500D01*
X90101976Y-45220500D01*
X90302456Y-45183024D01*
X90492637Y-45109348D01*
X90666041Y-45001981D01*
X90816764Y-44864579D01*
X90939673Y-44701821D01*
X90939673Y-44701819D01*
X90939675Y-44701818D01*
X91005507Y-44569608D01*
X91030582Y-44519250D01*
X91086397Y-44323083D01*
X91100119Y-44175000D01*
X95844610Y-44175000D01*
X95864068Y-44310342D01*
X95920869Y-44434717D01*
X95920870Y-44434718D01*
X95997894Y-44523610D01*
X96010412Y-44538056D01*
X96066595Y-44574162D01*
X96125439Y-44611978D01*
X96256633Y-44650500D01*
X96393367Y-44650500D01*
X96524561Y-44611978D01*
X96639589Y-44538055D01*
X96729130Y-44434718D01*
X96785931Y-44310342D01*
X96805390Y-44175000D01*
X96785931Y-44039658D01*
X96729130Y-43915282D01*
X96639589Y-43811945D01*
X96639588Y-43811944D01*
X96639587Y-43811943D01*
X96524562Y-43738022D01*
X96393367Y-43699500D01*
X96256633Y-43699500D01*
X96125437Y-43738022D01*
X96010412Y-43811943D01*
X95920869Y-43915282D01*
X95864068Y-44039657D01*
X95844610Y-44175000D01*
X91100119Y-44175000D01*
X91105215Y-44120000D01*
X91086397Y-43916917D01*
X91030582Y-43720750D01*
X91020001Y-43699500D01*
X90939675Y-43538181D01*
X90816763Y-43375419D01*
X90666041Y-43238018D01*
X90492638Y-43130652D01*
X90302457Y-43056976D01*
X90235629Y-43044484D01*
X90101976Y-43019500D01*
X89898024Y-43019500D01*
X89797783Y-43038238D01*
X89697542Y-43056976D01*
X89507361Y-43130652D01*
X89333958Y-43238018D01*
X89183236Y-43375419D01*
X89060324Y-43538181D01*
X88969418Y-43720748D01*
X88913602Y-43916916D01*
X88894785Y-44120000D01*
X88400000Y-44120000D01*
X88400000Y-41579999D01*
X88894785Y-41579999D01*
X88913602Y-41783083D01*
X88969418Y-41979251D01*
X89060324Y-42161818D01*
X89183236Y-42324580D01*
X89333958Y-42461981D01*
X89507361Y-42569347D01*
X89507363Y-42569348D01*
X89697544Y-42643024D01*
X89898024Y-42680500D01*
X90101974Y-42680500D01*
X90101976Y-42680500D01*
X90302456Y-42643024D01*
X90492637Y-42569348D01*
X90666041Y-42461981D01*
X90816764Y-42324579D01*
X90873083Y-42250000D01*
X97919610Y-42250000D01*
X97939068Y-42385342D01*
X97997615Y-42513539D01*
X98016681Y-42545673D01*
X98024500Y-42589008D01*
X98024500Y-44348195D01*
X98021861Y-44373641D01*
X98019633Y-44384266D01*
X98023548Y-44415677D01*
X98024500Y-44431014D01*
X98024500Y-44431116D01*
X98027918Y-44451602D01*
X98028657Y-44456670D01*
X98036107Y-44516438D01*
X98036185Y-44516682D01*
X98064827Y-44569608D01*
X98067171Y-44574162D01*
X98093634Y-44628292D01*
X98093777Y-44628482D01*
X98099579Y-44633824D01*
X98099581Y-44633826D01*
X98138108Y-44669293D01*
X98141780Y-44672817D01*
X103288181Y-49819219D01*
X103315061Y-49859447D01*
X103324500Y-49906900D01*
X103324500Y-50303232D01*
X103311384Y-50358736D01*
X103274811Y-50402498D01*
X103222518Y-50425261D01*
X103191195Y-50423583D01*
X103191195Y-50424500D01*
X103036633Y-50424500D01*
X102905437Y-50463022D01*
X102790412Y-50536943D01*
X102700869Y-50640282D01*
X102644068Y-50764657D01*
X102624610Y-50899999D01*
X102644068Y-51035342D01*
X102700869Y-51159717D01*
X102790412Y-51263056D01*
X102798068Y-51267976D01*
X102905439Y-51336978D01*
X103036633Y-51375500D01*
X103094407Y-51375500D01*
X103145925Y-51386708D01*
X103188129Y-51418307D01*
X103213390Y-51464585D01*
X103214681Y-51482696D01*
X103217073Y-51482353D01*
X103239068Y-51635342D01*
X103295869Y-51759717D01*
X103385412Y-51863056D01*
X103387905Y-51864658D01*
X103500439Y-51936978D01*
X103631633Y-51975500D01*
X103768367Y-51975500D01*
X103899561Y-51936978D01*
X104014589Y-51863055D01*
X104104130Y-51759718D01*
X104113135Y-51739999D01*
X109194785Y-51739999D01*
X109213602Y-51943083D01*
X109269418Y-52139251D01*
X109360324Y-52321818D01*
X109483236Y-52484580D01*
X109633958Y-52621981D01*
X109807361Y-52729347D01*
X109807363Y-52729348D01*
X109997544Y-52803024D01*
X110198024Y-52840500D01*
X110401974Y-52840500D01*
X110401976Y-52840500D01*
X110602456Y-52803024D01*
X110792637Y-52729348D01*
X110966041Y-52621981D01*
X111116764Y-52484579D01*
X111239673Y-52321821D01*
X111239673Y-52321819D01*
X111239675Y-52321818D01*
X111285313Y-52230161D01*
X111330582Y-52139250D01*
X111386397Y-51943083D01*
X111405215Y-51740000D01*
X111386397Y-51536917D01*
X111330582Y-51340750D01*
X111294345Y-51267976D01*
X111239675Y-51158181D01*
X111116763Y-50995419D01*
X110966041Y-50858018D01*
X110792638Y-50750652D01*
X110602457Y-50676976D01*
X110511797Y-50660029D01*
X110401976Y-50639500D01*
X110198024Y-50639500D01*
X110097783Y-50658238D01*
X109997542Y-50676976D01*
X109807361Y-50750652D01*
X109633958Y-50858018D01*
X109483236Y-50995419D01*
X109360324Y-51158181D01*
X109269418Y-51340748D01*
X109213602Y-51536916D01*
X109194785Y-51739999D01*
X104113135Y-51739999D01*
X104160931Y-51635342D01*
X104180390Y-51500000D01*
X104160931Y-51364658D01*
X104156474Y-51354899D01*
X104134085Y-51305874D01*
X104104130Y-51240282D01*
X104104128Y-51240280D01*
X104102384Y-51236460D01*
X104083319Y-51204327D01*
X104075500Y-51160992D01*
X104075500Y-49751805D01*
X104078139Y-49726359D01*
X104078785Y-49723275D01*
X104080367Y-49715732D01*
X104076452Y-49684323D01*
X104075500Y-49668986D01*
X104075500Y-49668888D01*
X104075500Y-49668886D01*
X104072075Y-49648369D01*
X104071341Y-49643325D01*
X104063891Y-49583550D01*
X104063821Y-49583332D01*
X104060065Y-49576392D01*
X104060065Y-49576390D01*
X104035148Y-49530348D01*
X104032828Y-49525840D01*
X104009826Y-49478789D01*
X104009825Y-49478788D01*
X104006360Y-49471700D01*
X104006225Y-49471519D01*
X104000419Y-49466174D01*
X103961891Y-49430706D01*
X103958218Y-49427181D01*
X103531037Y-49000000D01*
X104519610Y-49000000D01*
X104539068Y-49135342D01*
X104595869Y-49259717D01*
X104685412Y-49363056D01*
X104800437Y-49436977D01*
X104800439Y-49436978D01*
X104931633Y-49475500D01*
X105068367Y-49475500D01*
X105199561Y-49436978D01*
X105314589Y-49363055D01*
X105404130Y-49259718D01*
X105431403Y-49199999D01*
X109194785Y-49199999D01*
X109213602Y-49403083D01*
X109269418Y-49599251D01*
X109360324Y-49781818D01*
X109483236Y-49944580D01*
X109633958Y-50081981D01*
X109807361Y-50189347D01*
X109807363Y-50189348D01*
X109997544Y-50263024D01*
X110198024Y-50300500D01*
X110401974Y-50300500D01*
X110401976Y-50300500D01*
X110602456Y-50263024D01*
X110792637Y-50189348D01*
X110966041Y-50081981D01*
X111116764Y-49944579D01*
X111239673Y-49781821D01*
X111239673Y-49781819D01*
X111239675Y-49781818D01*
X111295858Y-49668986D01*
X111330582Y-49599250D01*
X111386397Y-49403083D01*
X111405215Y-49200000D01*
X111386397Y-48996917D01*
X111330582Y-48800750D01*
X111300473Y-48740282D01*
X111239675Y-48618181D01*
X111116763Y-48455419D01*
X110966041Y-48318018D01*
X110792638Y-48210652D01*
X110602457Y-48136976D01*
X110535629Y-48124484D01*
X110401976Y-48099500D01*
X110198024Y-48099500D01*
X110097784Y-48118237D01*
X109997542Y-48136976D01*
X109807361Y-48210652D01*
X109633958Y-48318018D01*
X109483236Y-48455419D01*
X109360324Y-48618181D01*
X109269418Y-48800748D01*
X109213602Y-48996916D01*
X109194785Y-49199999D01*
X105431403Y-49199999D01*
X105460931Y-49135342D01*
X105480390Y-49000000D01*
X105460931Y-48864658D01*
X105404130Y-48740282D01*
X105314589Y-48636945D01*
X105314588Y-48636944D01*
X105314587Y-48636943D01*
X105199562Y-48563022D01*
X105068367Y-48524500D01*
X104931633Y-48524500D01*
X104800437Y-48563022D01*
X104685412Y-48636943D01*
X104595869Y-48740282D01*
X104539068Y-48864657D01*
X104519610Y-49000000D01*
X103531037Y-49000000D01*
X101191037Y-46660000D01*
X109194785Y-46660000D01*
X109213602Y-46863083D01*
X109269418Y-47059251D01*
X109360324Y-47241818D01*
X109483236Y-47404580D01*
X109633958Y-47541981D01*
X109807361Y-47649347D01*
X109807363Y-47649348D01*
X109997544Y-47723024D01*
X110198024Y-47760500D01*
X110401974Y-47760500D01*
X110401976Y-47760500D01*
X110602456Y-47723024D01*
X110792637Y-47649348D01*
X110966041Y-47541981D01*
X111116764Y-47404579D01*
X111239673Y-47241821D01*
X111239673Y-47241819D01*
X111239675Y-47241818D01*
X111285313Y-47150161D01*
X111330582Y-47059250D01*
X111386397Y-46863083D01*
X111405215Y-46660000D01*
X111386397Y-46456917D01*
X111330582Y-46260750D01*
X111330209Y-46260001D01*
X111239675Y-46078181D01*
X111116763Y-45915419D01*
X110966041Y-45778018D01*
X110792638Y-45670652D01*
X110602457Y-45596976D01*
X110535629Y-45584484D01*
X110401976Y-45559500D01*
X110198024Y-45559500D01*
X110097783Y-45578238D01*
X109997542Y-45596976D01*
X109807361Y-45670652D01*
X109633958Y-45778018D01*
X109483236Y-45915419D01*
X109360324Y-46078181D01*
X109269418Y-46260748D01*
X109213602Y-46456916D01*
X109194785Y-46660000D01*
X101191037Y-46660000D01*
X98811819Y-44280781D01*
X98784939Y-44240553D01*
X98775500Y-44193100D01*
X98775500Y-44120000D01*
X109194785Y-44120000D01*
X109213602Y-44323083D01*
X109269418Y-44519251D01*
X109360324Y-44701818D01*
X109483236Y-44864580D01*
X109633958Y-45001981D01*
X109807361Y-45109347D01*
X109807363Y-45109348D01*
X109997544Y-45183024D01*
X110198024Y-45220500D01*
X110401974Y-45220500D01*
X110401976Y-45220500D01*
X110602456Y-45183024D01*
X110792637Y-45109348D01*
X110966041Y-45001981D01*
X111116764Y-44864579D01*
X111239673Y-44701821D01*
X111239673Y-44701819D01*
X111239675Y-44701818D01*
X111305507Y-44569608D01*
X111330582Y-44519250D01*
X111386397Y-44323083D01*
X111405215Y-44120000D01*
X111386397Y-43916917D01*
X111330582Y-43720750D01*
X111320001Y-43699500D01*
X111239675Y-43538181D01*
X111116763Y-43375419D01*
X110966041Y-43238018D01*
X110792638Y-43130652D01*
X110602457Y-43056976D01*
X110535629Y-43044484D01*
X110401976Y-43019500D01*
X110198024Y-43019500D01*
X110097783Y-43038238D01*
X109997542Y-43056976D01*
X109807361Y-43130652D01*
X109633958Y-43238018D01*
X109483236Y-43375419D01*
X109360324Y-43538181D01*
X109269418Y-43720748D01*
X109213602Y-43916916D01*
X109194785Y-44120000D01*
X98775500Y-44120000D01*
X98775500Y-42589008D01*
X98783319Y-42545673D01*
X98802384Y-42513539D01*
X98804127Y-42509720D01*
X98804130Y-42509718D01*
X98854237Y-42399999D01*
X101519610Y-42399999D01*
X101539068Y-42535342D01*
X101595869Y-42659717D01*
X101685412Y-42763056D01*
X101800437Y-42836977D01*
X101800439Y-42836978D01*
X101931633Y-42875500D01*
X102068367Y-42875500D01*
X102199561Y-42836978D01*
X102314589Y-42763055D01*
X102404130Y-42659718D01*
X102460931Y-42535342D01*
X102475958Y-42430827D01*
X104371960Y-42430827D01*
X104391418Y-42566169D01*
X104448219Y-42690544D01*
X104537762Y-42793883D01*
X104652787Y-42867804D01*
X104652789Y-42867805D01*
X104783983Y-42906327D01*
X104920717Y-42906327D01*
X105051911Y-42867805D01*
X105166939Y-42793882D01*
X105256480Y-42690545D01*
X105313281Y-42566169D01*
X105332740Y-42430827D01*
X105313281Y-42295485D01*
X105299202Y-42264657D01*
X105256480Y-42171109D01*
X105248429Y-42161818D01*
X105166939Y-42067772D01*
X105166938Y-42067771D01*
X105166937Y-42067770D01*
X105051912Y-41993849D01*
X104920717Y-41955327D01*
X104783983Y-41955327D01*
X104652787Y-41993849D01*
X104537762Y-42067770D01*
X104448219Y-42171109D01*
X104391418Y-42295484D01*
X104371960Y-42430827D01*
X102475958Y-42430827D01*
X102480390Y-42400000D01*
X102460931Y-42264658D01*
X102404130Y-42140282D01*
X102314589Y-42036945D01*
X102314588Y-42036944D01*
X102314587Y-42036943D01*
X102199562Y-41963022D01*
X102068367Y-41924500D01*
X101931633Y-41924500D01*
X101800437Y-41963022D01*
X101685412Y-42036943D01*
X101595869Y-42140282D01*
X101539068Y-42264657D01*
X101519610Y-42399999D01*
X98854237Y-42399999D01*
X98860931Y-42385342D01*
X98880390Y-42250000D01*
X98860931Y-42114658D01*
X98804130Y-41990282D01*
X98804128Y-41990280D01*
X98802384Y-41986460D01*
X98783319Y-41954327D01*
X98775500Y-41910992D01*
X98775500Y-41579999D01*
X109194785Y-41579999D01*
X109213602Y-41783083D01*
X109269418Y-41979251D01*
X109360324Y-42161818D01*
X109483236Y-42324580D01*
X109633958Y-42461981D01*
X109807361Y-42569347D01*
X109807363Y-42569348D01*
X109997544Y-42643024D01*
X110198024Y-42680500D01*
X110401974Y-42680500D01*
X110401976Y-42680500D01*
X110602456Y-42643024D01*
X110792637Y-42569348D01*
X110966041Y-42461981D01*
X111116764Y-42324579D01*
X111239673Y-42161821D01*
X111239673Y-42161819D01*
X111239675Y-42161818D01*
X111301854Y-42036943D01*
X111330582Y-41979250D01*
X111386397Y-41783083D01*
X111405215Y-41580000D01*
X111386397Y-41376917D01*
X111381503Y-41359718D01*
X111330581Y-41180748D01*
X111239675Y-40998181D01*
X111116763Y-40835419D01*
X110966041Y-40698018D01*
X110792638Y-40590652D01*
X110602457Y-40516976D01*
X110535629Y-40504483D01*
X110401976Y-40479500D01*
X110198024Y-40479500D01*
X110097783Y-40498238D01*
X109997542Y-40516976D01*
X109807361Y-40590652D01*
X109633958Y-40698018D01*
X109483236Y-40835419D01*
X109360324Y-40998181D01*
X109269418Y-41180748D01*
X109213602Y-41376916D01*
X109194785Y-41579999D01*
X98775500Y-41579999D01*
X98775500Y-40606899D01*
X98784939Y-40559446D01*
X98811819Y-40519218D01*
X99048082Y-40282955D01*
X99301421Y-40029615D01*
X99354165Y-39998321D01*
X99415457Y-39996132D01*
X99470302Y-40023584D01*
X99505281Y-40073963D01*
X99511838Y-40134943D01*
X99499609Y-40219998D01*
X99519068Y-40355342D01*
X99575869Y-40479717D01*
X99665412Y-40583056D01*
X99780437Y-40656977D01*
X99780439Y-40656978D01*
X99911633Y-40695500D01*
X100048367Y-40695500D01*
X100179561Y-40656978D01*
X100294589Y-40583055D01*
X100384130Y-40479718D01*
X100440931Y-40355342D01*
X100460390Y-40220000D01*
X100440931Y-40084658D01*
X100415794Y-40029617D01*
X100384130Y-39960282D01*
X100294587Y-39856943D01*
X100179562Y-39783022D01*
X100048367Y-39744500D01*
X99911633Y-39744500D01*
X99893805Y-39744500D01*
X99893805Y-39743272D01*
X99852800Y-39744149D01*
X99796189Y-39712708D01*
X99763147Y-39657016D01*
X99762686Y-39592261D01*
X99794928Y-39536108D01*
X99879221Y-39451815D01*
X99919447Y-39424939D01*
X99966899Y-39415500D01*
X109180814Y-39415500D01*
X109246092Y-39434073D01*
X109291814Y-39484229D01*
X109360324Y-39621818D01*
X109483236Y-39784580D01*
X109633958Y-39921981D01*
X109807361Y-40029347D01*
X109807363Y-40029348D01*
X109997544Y-40103024D01*
X110198024Y-40140500D01*
X110401974Y-40140500D01*
X110401976Y-40140500D01*
X110602456Y-40103024D01*
X110792637Y-40029348D01*
X110966041Y-39921981D01*
X111116764Y-39784579D01*
X111239673Y-39621821D01*
X111239673Y-39621819D01*
X111239675Y-39621818D01*
X111308185Y-39484229D01*
X111330582Y-39439250D01*
X111386397Y-39243083D01*
X111405215Y-39040000D01*
X111386397Y-38836917D01*
X111330582Y-38640750D01*
X111330209Y-38640001D01*
X111239675Y-38458181D01*
X111116763Y-38295419D01*
X110966041Y-38158018D01*
X110792638Y-38050652D01*
X110602457Y-37976976D01*
X110535629Y-37964484D01*
X110401976Y-37939500D01*
X110198024Y-37939500D01*
X110097783Y-37958238D01*
X109997542Y-37976976D01*
X109807361Y-38050652D01*
X109633958Y-38158018D01*
X109483236Y-38295419D01*
X109360324Y-38458181D01*
X109291814Y-38595771D01*
X109246092Y-38645927D01*
X109180814Y-38664500D01*
X99811803Y-38664500D01*
X99786357Y-38661861D01*
X99775731Y-38659633D01*
X99744324Y-38663548D01*
X99728987Y-38664500D01*
X99728886Y-38664500D01*
X99708359Y-38667924D01*
X99703300Y-38668661D01*
X99643556Y-38676109D01*
X99643316Y-38676186D01*
X99590359Y-38704844D01*
X99585805Y-38707188D01*
X99531721Y-38733628D01*
X99531506Y-38733788D01*
X99490729Y-38778082D01*
X99487183Y-38781777D01*
X98171108Y-40097852D01*
X98151254Y-40113976D01*
X98142165Y-40119914D01*
X98122722Y-40144894D01*
X98112563Y-40156398D01*
X98112484Y-40156476D01*
X98112479Y-40156482D01*
X98112480Y-40156482D01*
X98100390Y-40173414D01*
X98097341Y-40177504D01*
X98060354Y-40225024D01*
X98060237Y-40225253D01*
X98043057Y-40282955D01*
X98041495Y-40287831D01*
X98021940Y-40344795D01*
X98021906Y-40345030D01*
X98024394Y-40405192D01*
X98024500Y-40410316D01*
X98024500Y-41910992D01*
X98016681Y-41954327D01*
X97997615Y-41986460D01*
X97939068Y-42114657D01*
X97919610Y-42250000D01*
X90873083Y-42250000D01*
X90939673Y-42161821D01*
X90939673Y-42161819D01*
X90939675Y-42161818D01*
X91001854Y-42036943D01*
X91030582Y-41979250D01*
X91086397Y-41783083D01*
X91105215Y-41580000D01*
X91086397Y-41376917D01*
X91081503Y-41359718D01*
X91030581Y-41180748D01*
X90990374Y-41100000D01*
X95719610Y-41100000D01*
X95739068Y-41235342D01*
X95795869Y-41359717D01*
X95885412Y-41463056D01*
X96000437Y-41536977D01*
X96000439Y-41536978D01*
X96131633Y-41575500D01*
X96268367Y-41575500D01*
X96399561Y-41536978D01*
X96514589Y-41463055D01*
X96604130Y-41359718D01*
X96660931Y-41235342D01*
X96680390Y-41100000D01*
X96660931Y-40964658D01*
X96604130Y-40840282D01*
X96514589Y-40736945D01*
X96514588Y-40736944D01*
X96514587Y-40736943D01*
X96399562Y-40663022D01*
X96268367Y-40624500D01*
X96131633Y-40624500D01*
X96000437Y-40663022D01*
X95885412Y-40736943D01*
X95795869Y-40840282D01*
X95739068Y-40964657D01*
X95719610Y-41100000D01*
X90990374Y-41100000D01*
X90939675Y-40998181D01*
X90816763Y-40835419D01*
X90666041Y-40698018D01*
X90492638Y-40590652D01*
X90302457Y-40516976D01*
X90235629Y-40504483D01*
X90101976Y-40479500D01*
X89898024Y-40479500D01*
X89797783Y-40498238D01*
X89697542Y-40516976D01*
X89507361Y-40590652D01*
X89333958Y-40698018D01*
X89183236Y-40835419D01*
X89060324Y-40998181D01*
X88969418Y-41180748D01*
X88913602Y-41376916D01*
X88894785Y-41579999D01*
X88400000Y-41579999D01*
X88400000Y-39039999D01*
X88894785Y-39039999D01*
X88913602Y-39243083D01*
X88969418Y-39439251D01*
X89060324Y-39621818D01*
X89183236Y-39784580D01*
X89333958Y-39921981D01*
X89507361Y-40029347D01*
X89507363Y-40029348D01*
X89697544Y-40103024D01*
X89898024Y-40140500D01*
X90101974Y-40140500D01*
X90101976Y-40140500D01*
X90302456Y-40103024D01*
X90492637Y-40029348D01*
X90666041Y-39921981D01*
X90816764Y-39784579D01*
X90939673Y-39621821D01*
X90939673Y-39621819D01*
X90939675Y-39621818D01*
X91008185Y-39484229D01*
X91030582Y-39439250D01*
X91086397Y-39243083D01*
X91105215Y-39040000D01*
X91086397Y-38836917D01*
X91030582Y-38640750D01*
X91030209Y-38640001D01*
X90939675Y-38458181D01*
X90816763Y-38295419D01*
X90666041Y-38158018D01*
X90492638Y-38050652D01*
X90302457Y-37976976D01*
X90235629Y-37964484D01*
X90101976Y-37939500D01*
X89898024Y-37939500D01*
X89797783Y-37958238D01*
X89697542Y-37976976D01*
X89507361Y-38050652D01*
X89333958Y-38158018D01*
X89183236Y-38295419D01*
X89060324Y-38458181D01*
X88969418Y-38640748D01*
X88913602Y-38836916D01*
X88894785Y-39039999D01*
X88400000Y-39039999D01*
X88400000Y-37374675D01*
X88899500Y-37374675D01*
X88914033Y-37447738D01*
X88914033Y-37447739D01*
X88914034Y-37447740D01*
X88969399Y-37530601D01*
X89052260Y-37585966D01*
X89088792Y-37593232D01*
X89125325Y-37600500D01*
X89125326Y-37600500D01*
X90874674Y-37600500D01*
X90874675Y-37600500D01*
X90899029Y-37595655D01*
X90947740Y-37585966D01*
X91030601Y-37530601D01*
X91085966Y-37447740D01*
X91100500Y-37374674D01*
X91100500Y-36750000D01*
X109175487Y-36750000D01*
X109223062Y-36917208D01*
X109318058Y-37107988D01*
X109446497Y-37278067D01*
X109604003Y-37421654D01*
X109785201Y-37533846D01*
X109983939Y-37610837D01*
X110050000Y-37623187D01*
X110050000Y-36750000D01*
X110550000Y-36750000D01*
X110550000Y-37623187D01*
X110616060Y-37610837D01*
X110814798Y-37533846D01*
X110995996Y-37421654D01*
X111153502Y-37278067D01*
X111281941Y-37107988D01*
X111376937Y-36917208D01*
X111424512Y-36750000D01*
X110550000Y-36750000D01*
X110050000Y-36750000D01*
X109175487Y-36750000D01*
X91100500Y-36750000D01*
X91100500Y-36249999D01*
X109175487Y-36249999D01*
X109175488Y-36250000D01*
X110050000Y-36250000D01*
X110050000Y-35376813D01*
X110550000Y-35376813D01*
X110550000Y-36250000D01*
X111424512Y-36250000D01*
X111424512Y-36249999D01*
X111376937Y-36082791D01*
X111281941Y-35892011D01*
X111153502Y-35721932D01*
X110995996Y-35578345D01*
X110814798Y-35466153D01*
X110616060Y-35389162D01*
X110550000Y-35376813D01*
X110050000Y-35376813D01*
X109983939Y-35389162D01*
X109785201Y-35466153D01*
X109604003Y-35578345D01*
X109446497Y-35721932D01*
X109318058Y-35892011D01*
X109223062Y-36082791D01*
X109175487Y-36249999D01*
X91100500Y-36249999D01*
X91100500Y-35625326D01*
X91085966Y-35552260D01*
X91030601Y-35469399D01*
X90947740Y-35414034D01*
X90947739Y-35414033D01*
X90947738Y-35414033D01*
X90874675Y-35399500D01*
X90874674Y-35399500D01*
X89125326Y-35399500D01*
X89125325Y-35399500D01*
X89052261Y-35414033D01*
X88969399Y-35469399D01*
X88914033Y-35552261D01*
X88899500Y-35625325D01*
X88899500Y-37374675D01*
X88400000Y-37374675D01*
X88400000Y-34624000D01*
X88416613Y-34562000D01*
X88462000Y-34516613D01*
X88524000Y-34500000D01*
X111876000Y-34500000D01*
X111938000Y-34516613D01*
G37*
G04 #@! TD.AperFunction*
M02*
